<svg xmlns="http://www.w3.org/2000/svg" viewBox="0 0 876.29 714.76"><defs><style>.cls-1{fill:#ee2424}.cls-1,.cls-10,.cls-11,.cls-12,.cls-14,.cls-15,.cls-18,.cls-19,.cls-2,.cls-26,.cls-27,.cls-28,.cls-3,.cls-30,.cls-32,.cls-33,.cls-34,.cls-35,.cls-37,.cls-38,.cls-4,.cls-40,.cls-41,.cls-43,.cls-44,.cls-45,.cls-5,.cls-50,.cls-51,.cls-52,.cls-53,.cls-54,.cls-55,.cls-56,.cls-57,.cls-6,.cls-63,.cls-64,.cls-68,.cls-7,.cls-8,.cls-9{fill-rule:evenodd}.cls-2{fill:#fefcf4}.cls-3{fill:#f57f20}.cls-4{fill:#eeedee}.cls-5{fill:#e0e0de}.cls-6{fill:#ecb32b}.cls-7{fill:#1f2020}.cls-8{fill:#121212}.cls-9{fill:#cfd0d0}.cls-10{fill:#fff}.cls-11{fill:#111}.cls-12{fill:#e0e1e0}.cls-14{fill:#f47621}.cls-15{fill:#9f9f9f}.cls-18{fill:silver}.cls-19{fill:#d0d1d1}.cls-28{fill:#ed2024}.cls-26{fill:#020202}.cls-27{fill:#f48889}.cls-30{fill:#c0bfbf}.cls-32{fill:#ee2a27}.cls-33{fill:#b1b0b0}.cls-34{fill:#eda927}.cls-35{fill:#12120f}.cls-37{fill:#fcf0f1}.cls-38{fill:#ebb228}.cls-40{fill:#f57e20}.cls-41{fill:#aeaeae}.cls-43{fill:#fcfdfb}.cls-44{fill:#fdfefb}.cls-45{fill:#130e0b}.cls-50{fill:#fcdba6}.cls-51{fill:#fecc89}.cls-52{fill:#fad698}.cls-53{fill:#f9e2b1}.cls-54{fill:#f9e4bc}.cls-55{fill:#fbc678}.cls-56{fill:#f9c26c}.cls-57{fill:#fcba68}.cls-63{fill:#fbb658}.cls-64{fill:#fbad4f}.cls-68{fill:#ecb228}</style></defs><g id="Layer_2" data-name="Layer 2"><g id="Layer_2-2" data-name="Layer 2"><path class="cls-1" d="M431.28 64.61l3.23 1.62c1-.54 3.23-1.11 3.23-2.43 0-1-1.67-2.42-3.23-2.42-2.38 0-2.78 1.37-3.23 3.23z"/><path class="cls-1" d="M445 69.46l-4-4c-1.88 1.26-4.21 3.23-7.27 3.23-4.53 0-4.57-2.87-8.88-3.23 1 3.9 4.53 5.74 8.83 6.57 6.45 1.21 6.9-1.39 11.32-2.57z"/><path class="cls-1" d="M443.4 79.15c1.45-1 1.42-1.62 3.23-1.62h2.42c4.38 0 6.46 3 6.46 7.27 0 3.07-2.79 8.08-5.65 8.08h-2.43c-5.1 0-2.44-10.17-4-13.73zm-29.08-7.27l1.62 4.85c2.82-.66 2.72-1.62 5.65-1.62h4c1.86 0 2.42.56 2.42 2.42v.81c0 3.15-3.83 4.77-7.44 4.92l2.05 5.27 7-3.73c1.53 2.29 4 4.28 4 8.08 0 4.17-3.36 6.46-7.26 6.46h-1.62c-7.24 0-13.94-9-14.54-16.15h-2.42c.82 9.84 8.25 20.19 18.58 20.19h1.61c5.31 0 10.5-2.83 10.5-8.08v-.81c0-3.24-2.72-6.39-4-8.88 1.81-.42 1.86-.81 4-.81h.81c6 0-2.19 12.92 8.07 12.92 6.85 0 10.5-4.54 10.5-11.3v-4c0-11.65-14.73-12.81-17.16-3.78l-10.3 3.78c.43-1.81.81-1.86.81-4v-.81c0-3.47-6-7.27-9.69-7.27h-.81a13 13 0 00-6.38 1.54z"/><path class="cls-2" d="M449.05 77.53h-2.42c-1.81 0-1.78.64-3.23 1.62 1.59 3.56-1.07 13.73 4 13.73h2.43c2.86 0 5.65-5 5.65-8.08.03-4.29-2.05-7.27-6.43-7.27z"/><path class="cls-3" d="M321.44 125.19l18.58-20.2V54.11h-19.4l.82 71.08zM535.47 111.45l12.89 14.48 6.49-3.17V51.69h-19.38v59.76z"/><path class="cls-4" d="M465.2 122c2.28-.19 3.23 0 3.23-2.42v-3.28c-3.59.39-3.23 1.54-3.23 5.7z"/><path class="cls-5" d="M443.89 121.87l2.93.05-1.54-4.97-1.39 4.92z"/><path class="cls-6" d="M759.18 190.6c0-12.63-5-33.69-9.15-42.53-7.17-15.21-12.19-18.36-21.21-30.48-7.25-9.72-17.47-17.32-27.11-24.58s-19.49-16.42-28.94-22.75c1.77 7.63 12.47 27.37 16.42 35.27 6 12.06 11.48 22.17 20.53 31.16 8.83 8.79 18.21 15.86 26.25 25.44 7.88 9.39 15.49 19.59 23.21 28.47z"/><path class="cls-7" d="M429.67 122c-3.68-2.46-7.26-9.28-12.12-9.69V126c0 2.24.63 1.94 2.42 2.42v-10.5c3.68 2.46 7.26 9.28 12.25 9.68l-.94-16.15h-1.61z"/><path class="cls-8" d="M465.2 122c0-4.11-.36-5.26 3.23-5.65v3.23c0 2.44-.95 2.23-3.23 2.42zm-1.61 8l1.21-6.59 2.06 7.2 4.68 1.06-3.11-8.94c2.41-.2 4-.58 4-3.23v-.81c0-3.79-6.65-4.76-10.5-4.84.07 8.15-5.59 16.02 1.66 16.15zM445.28 117l1.54 5h-2.93l1.39-4.92zm-6.73 10.66c5.36-.59 1.19-4 5.65-4h4V126c0 1.86.56 2.42 2.43 2.42h2.36l-4.79-16.17c-4.63.4-8.68 11.2-9.65 15.36z"/><path class="cls-9" d="M483 127.61c0 1.65 1.66 1.48 3.23 1.61v-4.84c-.94.62-3.23 1.89-3.23 3.23z"/><path class="cls-8" d="M410.28 129.22a51 51 0 01-2.42-12.11v-3.23h-4c0 4 .68 6.31 1.3 10 1.19 7.26-1.62 5.9 5.12 5.34zM390.15 117.26l-1.55 10.52-.93-.17c-3.13-2.29-3.9-6.86-9.07-7.24l1.8 12.89v3.23l2.78-.07-1.8-9.79 8.22 7.49 1.3-9.74 1.42.07 2.62 7.2 4.27-.11-6.68-15.2z"/><path class="cls-10" d="M626.73 236.64h-2.42c-9 0-18.58-7.72-18.58-15.35v-8.07c0-6.33 9.67-15.35 16.16-15.35h4.84c10 0 17.77 9.65 17.77 20.19v.81c0 8.89-8.88 17.77-17.77 17.77zM269 218.87h2.42v1.62H269c-10.74 0-6.69-1.43-9.93 5.12l6.63 6.34-8.42-2.95-3.8 2.82 2.25 8.29-5.36-5.9c-10.66 2.48-3.16 4-7.85 9.66l-1.11-8.61-5.41-1.67-5.42 4.5 2.81-6.3c-2-1.32-3.06-4-4-4-3.86 0-5 2.09-9.12 2.06l7.68-4.52-1-5.72-9.71-1.52v-.73l9.75-.86 1.74-5.11-5.73-5.75 7.34 2.92 4-4.28-2.46-8.1 5.56 6.61 5.43-.93 2.63-8c0 8-.25 8.13 6.67 9.87l6.53-6.5-4.29 8.77c1.81 1.21 2.84 3.23 4.84 3.23 2.43 0 5.21-1.76 8.24-2.22l-7.39 6.25.79 4.7 8.06 1zm60.57-62.19c1.85 0 .94.28 3.23.81.52 2.17.81 1.52.81 3.23 0 2.95-2.23 6.46-4.85 6.46-2.23 0-1.94-.62-2.42-2.42h2.42c2.69 0 2.37-1.45 2.42-4h-8.07c-2.18 0-3.23-2.15-3.23-4 0-3.26 1.75-5.65 4.84-5.65 1.47 0 1.3 1.23 1.62 2.42h-4c.15 6.79 2.24 3.23 7.27 3.23zm197.87.81l10.17-13.2.89.21 2.17 14.85 5.33-7.47 2.54.85-9.89 13-2.12-1.74-1-13.72c-2.86 2.1-3.8 6.91-8.08 7.27zm-44.63-3.33l4.86 2.46-.64 1-5.46-1.62-1.57 3.61 4.39 3.6-.61.76-8.06-4.05 6.5-13.82 8.29 4.44-.42 1.13-5.52-1.46-1.8 3.95zm-17.26.76l4.55 1v1.76l-8-1.76c.07-3 1.25-6.24 2.12-9.19 2-6.65-.22-5.79 5.31-5.3l-3.9 13.54zm-16.45-5.51v3.23h-3.86l2.24-15.34 7.27.78c.61.9 2.43 2.71 2.43 3.23 0 8.22-8.08 3.32-8.08 8.07zm-56.53-4.81l4 12.79-3.2.91c-.2-2.4-3-12.12-4.84-12.12s-.94.28-3.23.81v-2.42c6.49-.15 10.1-5.31 11.26-1l-4 1zm30.69 7.24h-2.44l1.63-14.54c4.07.34 5.66 5.44 6.46 8.88l1.38-.11 4.6-9.8h1.47l2.24 15.52h-3.1l-2-8.18-4.52 8.67-.56-.63-5.21-8.65v8.89zm95.3-.81l.72-4.72-3.94-2.52-5.67 2.39c.62-2.31 12.8-11.23 13.58-10.9 2.12.9 0 8.14-.34 10.41-1 5.82 1.35 8.36-4.35 5.34zm-114.4-11.36l8.55-1.56v2.42h-5l.92 4.78 4.85-.77v1.65l-4.81.76.8 5.06 5.62-1v2.2l-8.61 1-2.33-14.55zm-42.53-10.43c0-2.78.08-.59 1.52-3l12.4 12.64c-2.16.52-1.52.81-3.23.81-1.29 0-1.93-2.42-3.23-2.42a6.33 6.33 0 00-4.53 1.67l-1.78 5.59-1.15-15.32zm-13.16 4.13l2.76 11.22c-14.85-10-9.18-8.81-8 5.63-2.23-1.5-6.23-7.22-8.87-7.22-.42 0-1.77 1.17-2.42 1.62l12.54 11.73 1.11-.52-1.63-12 8.12 6.51 2.42-1-4-16-2 .1zm128-.11l10.93-14 1 .25 1.76 17.83c-2.26-1.09-4-.35-4-3.23v-3.23c-3.32-.28-1.8-.81-4.85-.81-2.76 0 .75 2.77-4.84 3.23zm23.31-8.87l1.1 8.85c.27 3.64-2.6 3.81-2.6 6.48 0 1.32 2.21 1.88 3.23 2.42 1.15-4.95 6-10.91 10.5-12.11-2.68-3.66-3.11 1.1-8.08 2.42v-4.84c0-2.56-2-2.75-4.15-3.22zm-107.29-8l6.68 15.2-4.27.11-2.62-7.2-1.42-.07-1.3 9.74-8.22-7.49 1.8 9.79-2.78.07v-3.23l-1.8-12.89c5.17.38 5.94 4.95 9.07 7.24l.93.17 1.55-10.52 2.38-.92zm46 11.27c1-4.16 5-15 9.69-15.35l4.82 16.12h-2.36c-1.87 0-2.43-.56-2.43-2.42v-2.42h-4c-4.46 0-.29 3.45-5.65 4zm25 2.42c-7.25-.16-1.62-8-1.62-16.15 3.85.08 10.5 1.05 10.5 4.84v.81c0 2.65-1.63 3-4 3.23l3.11 8.94-4.68-1.06-2.06-7.2-1.15 6.51zm-55.73-16.15v3.23a51 51 0 002.42 12.11c-6.74.56-3.93 1.92-5.16-5.33-.62-3.7-1.3-6-1.3-10zm21.81-2.43h1.61l.94 16.15c-5-.4-8.57-7.22-12.25-9.68v10.49c-1.79-.48-2.42-.18-2.42-2.42v-13.78c4.86.41 8.44 7.23 12.12 9.69v-10.5zm-1.62-33.92c0-1.86-.56-2.42-2.42-2.42h-4c-2.93 0-2.83 1-5.65 1.62l-1.62-4.85a13 13 0 016.46-1.62h.81c3.69 0 9.69 3.8 9.69 7.27v.81c0 2.18-.38 2.23-.81 4l10.3-3.78c2.43-9 17.16-7.87 17.16 3.78v4c0 6.76-3.65 11.3-10.5 11.3-10.26 0-2-12.92-8.07-12.92h-.81c-2.18 0-2.23.39-4 .81 1.32 2.49 4 5.64 4 8.88v.81c0 5.25-5.19 8.08-10.5 8.08h-1.61c-10.33 0-17.76-10.35-18.58-20.19h2.42c.6 7.14 7.3 16.15 14.54 16.15h1.62c3.9 0 7.26-2.29 7.26-6.46 0-3.8-2.5-5.79-4-8.08l-7 3.73-2.05-5.27c3.61-.15 7.44-1.77 7.44-4.92v-.81zm17-8.07l-4-4c-1.88 1.26-4.21 3.23-7.27 3.23-4.53 0-4.57-2.87-8.88-3.23 1 3.9 4.53 5.74 8.83 6.57 6.48 1.25 6.93-1.35 11.36-2.53zm-7.27-5.66c0 1.32-2.21 1.89-3.23 2.43l-3.23-1.62c.45-1.86.85-3.23 3.23-3.23 1.56 0 3.23 1.44 3.23 2.42zM206 269.75c8.58-.71 6.47-3 8.88-8.07-3-1 1.27-2.67 3.57-6.13 1.95-2.94 3.24-6 7.74-6h9.69c6.1 0 11.95 4.85 14.54 4.85 1.3 0 6.8-8.13 19.4-8.06 8 0 17-3.41 20.17-8.1 0-7.48-4-6.53-4-12.11v-.81c0-3.08 1.61-4 1.61-4.84 0-4-2.42-5.35-2.42-8.89 0-1.81.64-1.77 1.74-3.26l-.93-4.81C288 200.4 296.65 190 300.44 189l.14-6.61 4.29 3.41.42-7.3c8.78 10.1 5.82 3.39 14.4 9 2 1.3 11.68 9.58 12.22 11.27l-3.2-.91-.81.81c7.36 4.93 8.09 2.5 8.89 12.11-1.63 1.09-3.26 3.23-5.66 3.23-.53 0-10.47-3.76-13.73-4 4.08 7.69 3.5 7.3 12 10.6 5.17 2 9.25 6.22 9.78 12.77l3.25-1.57c2.84-5.91 4.26-13.34 7.8-20.46s7.7-11.67 10.78-17.5c-12-6.35-21.13-13.73-40.39-13.73v-1.61c4.12-1 12.47-3.23 17-3.23h7.26a71.34 71.34 0 0128.27 6.46c16-10.73 33.1-22.61 59.77-22.61h2.42c11.12 0 25.91 3.61 34.26 6.93a105.47 105.47 0 0114.19 6.81c1.51.87 12.05 8.87 12.12 8.87 4.49 0 17.09-6.46 27.46-6.46h6.46c6.54 0 18.84 2.22 22.65 5.17l-16.19 1.29-4.84 1.62c-10 .83-15.45 7.51-22.61 11.3 4.59 6.87 15.33 21.7 16.15 31.5l8.07 2.42c.56-6.7 4.45-10.45 9.93-12.68 10.29-4.19 6.46-2.64 11.88-10.74-2.91.24-12.84 4-12.92 4-2.82 0-6.46-1.16-6.46-4v-.81c0-8.88 4.71-5.08 8.85-11.43l-4.82.93c.13-.16 8.21-7.14 9.48-8.29 3.49-3.15 6.8-5.44 12.92-5.6l5.07-6.3.31 7.71 4.73-2.82-1 4.81c3.34 2.23 7 3.47 8.08 8.07l.94.67.68.95 5.94 6.17-.78.3-.16 8.87.65 12.12c0 5.75-4 6.8-4 11.3v.81c0 5.37 12.89 9 19.38 8.89 12.09-.14 18.68 8.07 20.2 8.07 3.3 0 8.61-4.84 16.15-4.84h7.27c6.76 0 8.58 8.4 12.92 11.3l1.57 1.5-1.57.93-.25 2.71 4.29 2.94-6.46-43.61-.32-4.89 1.93-17.73c-21.15 0-46.6-33.11-71.07-33.11l-13-.44-15.27 2.86c-7.71-33.11-24.41-53.5-50.05-68.67-12.39-7.33-26.51-13-38.78-20.18-6.28-3.67-12.76-6.77-18.92-11-6.4-4.29-10.74-9.25-16.7-13.24-4.83 3.24-10.7 9-16 13.06-5 3.79-13 7.75-19 10.91-12.94 6.85-25.94 13.8-38.78 20.17-25.09 12.47-42.71 37.71-49.83 68.38l-13.7-1.87h-15.33c-24.54 0-45.94 31.09-70.26 33.11.33 15.08 2.32 20.22-.33 36-2.18 12.98-4.47 21.13-4.47 35.88z"/><path class="cls-11" d="M483 127.61c0-1.34 2.32-2.62 3.23-3.23v4.84c-1.57-.13-3.23 0-3.23-1.61zm-6.46 5.65c5.59-.46 2.08-3.23 4.84-3.23 3 0 1.53.53 4.85.81v3.23c0 2.88 1.78 2.14 4 3.23l-1.76-17.83-1-.25z"/><path class="cls-12" d="M364.25 136.49l3.47-1.12-3.47-2.11v3.23z"/><path class="cls-8" d="M364.25 133.26l3.47 2.11-3.47 1.12v-3.23zm.31 5.71a6.33 6.33 0 014.53-1.67c1.3 0 1.94 2.42 3.23 2.42 1.71 0 1.07-.29 3.23-.81l-12.4-12.64c-1.44 2.38-1.53.19-1.52 3l1.15 15.32zM504 127.61c0-2.56-2-2.75-4.15-3.22l1.1 8.85c.27 3.64-2.6 3.81-2.6 6.48 0 1.32 2.21 1.88 3.23 2.42 1.15-4.95 6-10.91 10.5-12.11-2.68-3.66-3.11 1.1-8.08 2.42z"/><path class="cls-12" d="M449.68 145.34c3.77-.36 3.41-1.5 3.41-5.62h-2.35z"/><path class="cls-4" d="M517.07 141.62c.11.93 0 2.14 1.44 2.14 1.86 0 1.57-2.26 1.61-4z"/><path class="cls-8" d="M352.08 150.28l2.42-1-4-16-2 .1 2.76 11.22c-14.85-10-9.18-8.81-8 5.63-2.26-1.51-6.26-7.23-8.9-7.23-.42 0-1.77 1.17-2.42 1.62l12.54 11.73 1.11-.52-1.63-12zM520.12 139.71c0 1.79.25 4-1.61 4-1.44 0-1.33-1.21-1.44-2.14l3-1.91zM518.51 151c5.7 3 3.39.48 4.35-5.34.38-2.27 2.46-9.51.34-10.41-.78-.33-13 8.59-13.58 10.9l5.67-2.39 3.94 2.52zM423.21 143l5.17 8.72.56.63 4.52-8.67 2 8.18h3.1l-2.24-15.52h-1.47l-4.6 9.8-1.38.11c-.8-3.44-2.39-8.54-6.46-8.88l-1.63 14.54h2.44zM450.74 139.74h2.35c0 4.12.36 5.26-3.41 5.62l1.06-5.6zm-1.69 9.67c0-4.75 8.08.15 8.08-8.07 0-.52-1.82-2.33-2.43-3.23l-7.27-.78-2.24 15.34h3.86zM415.1 153.23l.03-2.2-5.62 1.01-.8-5.06 4.81-.76-.01-1.65-4.85.77-.92-4.78 4.97-.03v-2.42l-8.55 1.56 2.33 14.55 8.61-.99zM329.52 156.68c-5 0-7.12 3.56-7.27-3.23h4c-.32-1.19-.15-2.42-1.62-2.42-3.09 0-4.84 2.39-4.84 5.65 0 1.89 1.05 4 3.23 4h8.07c-.05 2.59.27 4-2.42 4h-2.42c.48 1.8.19 2.42 2.42 2.42 2.62 0 4.85-3.51 4.85-6.46 0-1.71-.29-1.06-.81-3.23-2.25-.41-1.34-.73-3.19-.73zM469.4 141.38c-5.53-.49-3.35-1.35-5.31 5.3-.87 2.95-2 6.17-2.12 9.19l8 1.76v-1.76l-4.55-1zM396.51 143.6c-1.16-4.34-4.77.82-11.26 1v2.4c2.29-.53 1.38-.81 3.23-.81s4.64 9.72 4.84 12.12l3.2-.91-4-12.79z"/><path d="M285.91 129.22h-3.23c-2.57 11-15.35 14.87-15.35 25.85v7.27c5.14-.12 9.35-3.23 17-3.23l9.71-.19 12.08 1.13-.75-.46 12.07-28.75c-14.02-3.26-15.66-1.62-31.53-1.62z" fill="#fffffd" fill-rule="evenodd"/><path class="cls-10" d="M550.81 131.65l12.13 28.42 16.95-1h.81c9.43 0 14.51 3.08 21 3.23v-6.47c0-11.06-13.44-15-16.15-26.65h-4.85c-13.92.04-19.52-3.02-29.89 2.47z"/><path class="cls-8" d="M527.39 157.49c4.28-.36 5.22-5.17 8.08-7.27l1 13.72 2.12 1.74 9.89-13-2.54-.85-5.33 7.47-2.17-14.85-.89-.21z"/><path class="cls-7" d="M484.56 150.21l5.52 1.46.42-1.13-8.3-4.44-6.49 13.82 8.06 4.05.61-.75-4.39-3.61 1.58-3.64 5.41 1.61.64-.96-4.86-2.46 1.8-3.95z"/><path class="cls-14" d="M328.72 178.62v1.48h3.23c13.47 0 21.91 6.66 30.57 11.21l1.87-2.45-2.46-3.32 3.83 1.67 5-3.87c-10.19-2.38-13.62-5.66-28.27-5.66l-3.25-.18z"/><path class="cls-6" d="M117.11 191.41c3-2 17.91-23.23 23.22-28.47 8.9-8.8 17.43-16.62 26.24-25.44 18.17-18.17 25.42-43.1 37.76-66.43-2.7.72-24.71 19.4-29.07 22.62-11.84 8.74-17.26 13.49-27.26 24.43-15.77 17.37-30.89 40.64-30.89 73.29z"/><path class="cls-14" d="M531.43 183.34l4.84-1.62 4-.81c-1.89-1.2-4.09-1.61-7.27-1.61h-12.88c-8.4 0-14.41 3.31-21 4.84.41 1.54 2.66 4 4 4 1.57 0 2.63-1.1 5-1.36l-3.38 3 .76 2.44c5.07-.42 19.58-12.91 25.93-8.88z"/><path class="cls-15" d="M316.6 190.6l2.64 1.27z"/><path class="cls-9" d="M554.6 186.29l4.25 3.67-4-1c1.42 3.93 2.51 1 5.37 2.73 4.17 2.47-2.5 3.08 1.9 4.54l.1-3.35 2.32 1.73c-.51-2.22-1.61-3.28-1.61-4.84 0-3.05.53-1.53.46-5l-2.08 5c-1.49-1-3.23-2.36-3.23-4.85 0-.48 1.12-1.68 1.23-2.86z"/><path fill="#7f8080" fill-rule="evenodd" d="M319.83 193.03l1.77-.16-1.77-1.46v1.62z"/><path d="M579.89 195.45l.81-2.42-.68-.95-.94-.67c-2.7 0 .69 3.9.81 4.04z" fill="#66625e" fill-rule="evenodd"/><path class="cls-18" d="M545.16 199.49c3.69-1 7.14-4.25 9.69-6.46a13 13 0 00-9.69 6.46z"/><path class="cls-19" d="M308.52 197.87l1.61-.81v3.23h.81v-3.83l6.43-1v-1.78l-4.21.86 1.84-3.94h1.62c-1.5-2.23-2.32-3.76-5.8-3.78l2.57 1.36v1.62c0 3.28-1.28 4.34-3.24 5.65v-3.23h-.6z"/><path fill="#818181" fill-rule="evenodd" d="M327.9 198.68l.81-.81-1.73-.76.92 1.57z"/><path class="cls-5" d="M326.29 203.53c-.85-3.18-3.21-4.09-6.46-4.85.69 2.58 3.94 4.17 6.46 4.85z"/><path fill="#908f8f" fill-rule="evenodd" d="M308.52 197.87l-3.06 3.51 3.06-1.89v-1.62z"/><path class="cls-4" d="M579.89 195.45c.42 1.81.81 1.86.81 4 0 2.78-.6 3.12-.81 5.65 1.07-1.24 3.23-2.7 3.23-4.85v-.8c0-2.24-1.86-3.08-3.23-4z"/><path class="cls-5" d="M538.7 201.91l2.31-.02.92-2.4 1.5-1.93-4.73 1.93v2.42z"/><path class="cls-6" d="M96.92 224.52c10.08-11.6 16.59-15.66 31.22-22.89 10.46-5.16 22.54-16.89 25.31-28.79-7.77 5.2-13.46 11-22.74 15.21-13.7 6.21-12.93 7.73-23.29 14.67.78-3.35 4.89-11.28 6.47-15.33s3.11-13.88 3.86-18.76c1.2-7.95.33-13.14 2.46-20.15 1.66-5.45 5.52-11.44 6.59-16-7.93 5.31-20.76 25.43-23.11 37.46-1.68 8.57-2.12 19.09-3.37 27.33-1.32 8.58-2.76 19.57-3.4 27.25z"/><path d="M538.7 201.91h-1.62v1.62c1-.56.87-.81 2.42-.81 3.09 0 .3-.25 2.43.81v-4l-.92 2.4z" fill="#606161" fill-rule="evenodd"/><path class="cls-12" d="M564.34 200.93l-1.41.17h-.81c-2.68 0-1.69 1.62-3.23 1.62-2.79 0-3.13-.6-5.65-.81.66 2.48 1.57 3.23 4.84 3.23h.81a7.86 7.86 0 007.66-6.81z"/><path class="cls-19" d="M331.1 204.4l-.81 3.02 3.48-.76-1.83-3.94-3.37.26 2.53 1.42z"/><path class="cls-6" d="M769.68 202.72c-10-6.67-8.57-9-22.87-15.09-8.12-3.44-16.19-10.13-23.16-14.79 1 11.57 16.06 22.5 24.71 27.78 5.87 3.58 11.46 5.81 17.14 9.52 7 4.6 9.22 9.65 13.88 12.77-.7-8.35-2.24-18-3.29-27.4-.9-8-1.88-19.16-3.64-27.06-2.77-12.49-15.37-32.8-23.77-38.42.92 3.95 5.53 11 7.12 16.31 1.76 5.82 2.62 13.75 3.32 20.1.89 8.05 1.35 13.09 3.44 20 1.53 5.01 6.04 11.64 7.12 16.28z"/><path class="cls-5" d="M288.26 204.28l4.26 6.49-1-8.05c-.13-.93.43-1.63.58-3.41z"/><path class="cls-12" d="M313.37 210c3.28 0 4.34-1.28 5.61-3.43l-5 1.21-2.21-2.41-3.87.41-2.63-2.24a8.75 8.75 0 008.1 6.46z"/><path fill="#ed2024" d="M243.1 209.18h1.61v1.62h-1.61z"/><path d="M245.52 206.76v5.65h-3.23v-5.65l-.8 4.84c-.14 1.85.68 2.42 2.42 2.42s2.56-.57 2.52-2.43z" fill="#ee2e2d" fill-rule="evenodd"/><path d="M243.1 210.79v-1.61h1.62v1.61zm2.42-4l-.8 1.61h-1.5l-.93-1.57v5.65h3.23z" fill="#f8aeaf" fill-rule="evenodd"/><path class="cls-2" d="M238.25 224.52c1.67 1.12 2.1 2.43 4 2.43h3.23c1.95 0 2.38-1.31 4-2.43-.87 3.26-1.38 2.64-4 4h-3.23c-3.88-2.05-2.17-.48-4-4zm-4-9.69h4.84c2.44 0 2.24.95 2.43 3.23h-4c-3 0-2.61-2-3.23-3.23zm18.57 0l1.74-.76-.93 1.57c-1.2 1.63-1.85 2.42-4.85 2.42h-2.42c.37-4.49 1.48-3.23 6.46-3.23zm-10.5-8.07l-.8 4.84c-.14 1.85.68 2.42 2.42 2.42s2.56-.57 2.52-2.43l-.91-4.83-.8 1.61h-1.5l-.93-1.57zM231 216.45v4c0 5 6.26 11.3 11.3 11.3h3.23c15 0 16.41-26.65-1.61-26.65h-1.62c-5.05.04-11.3 6.3-11.3 11.35z"/><path class="cls-4" d="M571.16 197.88l-1.77 2.41c0 9.74-5.34 8.68-6.34 13.85-2.18 11.17 1 6.31-5 15.23 4.59-.38 3.06-2.42 4.85-2.42a3.1 3.1 0 013.23 3.23c0 4.29-2.43 3.37-2.43 10.5-3.34 2.24-7.14 5-7.18 10.63l4-2.56c4.65 0 11.91-3.28 13.21-6.17 3.35-7.42 6.85-6.08 7-12.4-3.59 4.13-9.66 13.19-16.16 13.73 3.75-5.6 11.16-11.17 11.5-17.56l-6.81 6.16-.83-.71-.67-7.44-4 1c.76-9.06 10.5-5.8 10.65-20.07l-5.8 6.34c.13-5.82 3.63-6.47 3.44-9.77l1.41-10.42v-.81c0-3-.79-3.64-2-4.83z"/><path class="cls-26" d="M616.23 273.79c-.78 2.91-.07 2.16-3.23 2.42v-1.44zm0 0l4-1v-.65H617l-.81 1.62zM609 269l.28-5.13 2.1 3.45v3.23h-.81v-2.49L609 269zm3.13-6.52l2.54 5.68-1.47 2.36-1.07-8zm-15.29 4.84v-1.64l-12.34 2.62 8.31 1.45v.81c-6.5 0-15.91-1.21-18.43-4.45l4.7-2a14 14 0 005.65 1.61c3.28 0 4.19-.74 4.85-3.23h1.61v1.62h3.24c3.72 0 4.75 2.63 4.9-3.17.09-3.12-.06-6.58-.06-9.75h.81c0 8.26 3 14.7-3.23 16.15zm54.16-5.64l4 .8v3.42l4-1v2.42h-3.23c-3.27 0-3.92-3.58-4.85-5.65zM609 252h1.62v4.85h-.81v-2.42c0-3.09.25-.3-.81-2.43zm-71.07.81l.07-1.36 11.24-2.68-.42 4.39-2-2.77h-1.61c-2.71 0-1.63 2.3-7.27 2.42zm96.07-3.19a7.53 7.53 0 016.44-3.29h1.62c4.53 0 6.25 1.32 8.07 4-.23-.06-8.48-3-8.88-3.21l-7.25 2.5zm-105.8-11.37l-6.29-4.32 1.87 21.25 6-3.2 12.93-3.2c-1.54-6.64-2.77-6.19-8.89-5.68l-5.65-4.85zm-1.62-8.88l2.43 2.42c.65-.45 2-1.61 2.42-1.61 1.81 0 1.56 3 2.29 5.09l-7.14-4.27-2.58-1 1.89-1.52.67.94zm24.28 5.63l5.72-2.33-1.52 2.81 7.06-2.91c-.92 1.37-7.71 7.27-9.69 7.27-1.2 0-3.57-1.74-5.29-2.73l-3.6 5.15-.09-4.29 5.1-1.4-1.27-4.27 4.13-3.79-.55 6.49zm-11.36 4h-.8v-3.23c2-3.89 2.27-6.1 7.27-7.27-2.42 3.31-6.47 3.4-6.47 10.5zm3.24-17.77c-3.61.3-2.1.19-3.94 2.4l-.86-3 7.22-1.78v.81h-2.42v1.61zm40.38-6.46v1.62c0 1.81.64 1.77 1.4 3.19l-.85 3.89-3 3.42c.33-4 1.61-3 1.61-6.46 0-2.79-.6-3.13-.81-5.66h-1.54l3.16-8.1h1.61c-.31 3.78-1.61 4-1.61 8.07zm-16.57-16.5a7.86 7.86 0 01-7.66 6.81h-.81c-3.27 0-4.18-.75-4.84-3.23 2.52.21 2.86.81 5.65.81 1.54 0 .55-1.62 3.23-1.62h.81l1.41-.17 2.21-2.6zm-27.85 3.58v-2.42l4.73-1.93-1.5 1.93v4c-2.13-1.06.66-.81-2.43-.81-1.55 0-1.43.25-2.42.81v-1.62zm41.19-6.46c1.37.92 3.23 1.76 3.23 4v.8c0 2.15-2.16 3.61-3.23 4.85.21-2.53.81-2.87.81-5.65 0-2.18-.39-2.23-.81-4zm-34.73 4c3.69-1 7.14-4.25 9.69-6.46a13 13 0 00-9.69 6.46zm24.23.8c0 9.74-5.34 8.68-6.34 13.85-2.18 11.17 1 6.31-5 15.23 4.59-.38 3.06-2.42 4.85-2.42a3.1 3.1 0 013.23 3.23c0 4.29-2.43 3.37-2.43 10.5-3.34 2.24-7.14 5-7.18 10.63l4-2.56c4.65 0 11.91-3.28 13.21-6.17 3.35-7.42 6.85-6.08 7-12.4-3.59 4.13-9.66 13.19-16.16 13.73 3.75-5.6 11.16-11.17 11.5-17.56l-6.81 6.16-.83-.71-.67-7.44-4 1c.76-9.06 10.5-5.8 10.65-20.07l-5.8 6.34c.13-5.82 3.63-6.47 3.44-9.77l1.41-10.42v-.81c0-3-.79-3.64-2-4.83l-.31 12.11-1.77 2.41zm-10.08-18.2c-.11 1.18-1.23 2.38-1.23 2.86 0 2.49 1.74 3.85 3.23 4.85l2.08-5c.07 3.48-.46 2-.46 5 0 1.56 1.1 2.62 1.61 4.84l-2.32-1.73-.1 3.35c-4.4-1.46 2.27-2.07-1.9-4.54-2.86-1.7-4 1.2-5.37-2.73l4 1-4.25-3.67 4.71-4.2zM358.59 211.6l1.62-.81c1 4.41 2.71 8.89 8.08 8.89h.8c6 0 6.84-6.46 10.5-6.46h4a8.78 8.78 0 018.08 6.46c6.44-3.41 16.9-7.27 26.65-7.27v-4.85c-1.81-2.7-4.46-6.46-8.88-6.46h-3.24c.8-3 5.25-5.65 8.89-5.65H420c3.75 0 6.55 2.56 8.08 4.84 2.28-1.52 6.28-4.84 9.69-4.84h4.85c2.93 0 2.83 1 5.65 1.61-3 4.09-7.29 2-8.88 8.89l.06 9.54 2.36 1 15.32-2.49c1.69-1.13 7.26-5.73 7.26-8.07v-.81c0-4.56-5.33-9.33-9.69-9.69 1.6-2.18 4.33-3.23 8.08-3.23h1.61c7.27 0 9 7 12.93 8.07 1.1-4.12 6.17-6.46 11.3-6.46h1.62c5.83 0 12.11 4.08 12.11 9.7v.8c0 4.44-7.54 8.89-12.92 8.89h-1.61c-3.51 0-2.5-1.29-6-1.26l-4.52 6.1c7.31 1.71 15.89 8.52 20 13.94 7.65 10.14.45 13.52 20.4 13.52-4.86 3.09-8.57-.29-14 4.61-2.87 2.6-3.32 8.75-6.81 12.57a50.56 50.56 0 01-10.39 9c-4.55 3-10.15 4-13.25 6.13.84 1.26 1.07 2.42 3.23 2.42 10.05 0 25.84-2.4 25.84 9.69v1.62c0 7.26-8.51 11.31-16.15 11.31h-.81c-7.28 0-9.33-3.84-12.92-6.47-1.14 4.3-6.52 8.08-12.11 8.08h-1.62c-2.93 0-2.83-1-5.65-1.61.92 1.75 2.42 4.65 2.42 7.26 0 5.67-9.12 11.31-15.34 11.31h-.81c-5.57 0-11.79-2.23-12.92-6.46H424c-1 2.83-6 5.65-9.69 5.65h-.81c-8.49 0-15.16-4.91-15.34-12.92 6.1 3.23 16 2.63 17.77-4-4.87-.4-9.7-2.88-9.7-8.07 0-5.66 6.38-8.08 12.12-8.08v-9.69c-1.4-.89-11.8-1.73-13.91-2.25-4.93-1.19-8.21-3.34-11.84-4.2l-.9 7.26v13.73a8.64 8.64 0 008.07 8.07h2.43c-.87 3.26-4.83 6.46-8.89 6.46h-4c-8.68 0-10.88-6.18-13.73-12.11-1.88 1.26-4.21 3.23-7.26 3.23h-.81c-4 0-7-1.81-9.69-3.23 2 8.44 16 21.58 22 27.26 3.91 3.7 9.45 7 14.61 9.62 4.73 2.36 14.16 5.42 17.5 7.54 1.81-.42 1.85-.81 4-.81h.8c3.77 0 2.54 1.62 8.08 1.62 1-4.39 4.76-12.12 9.69-12.12 6.68 0 8.27 12.49 11.27 11.78l11.35-.47 21.8-8.88c18.57-9.83 43.62-38.69 43.62-66.23h.8c0 8.46-.21 15 3.23 20.19a6.43 6.43 0 004-5.65c0-2.24-.62-1.95-2.42-2.43.52-2.16.81-1.52.81-3.23s-.28-.94-.81-3.23c-.74-.49-2.42-1.31-2.42-2.42 0-2.4 1.61-2.16 1.61-5.65l.1-1.5 2.32-1.73h19.44c4.1 2.74 8.11 6.73 12.63 9.17 5.89 3.17 11 2.65 16.74 5.07 3.48 1.47 5.75 9.4 8.79 13s9.49 6.28 9.49 13.13v.81c0 2.37-5.93 12.81-7.27 15.34l-6.46 7.27-2.42 5.65h8l.88-1.57 3.27-7.2 1.58-.88 4.84-5.65c1.63-7 9.69-10.52 9.69-13.73V298c0-1.11-5.65-10-5.65-14.54a3.1 3.1 0 013.23-3.23h.81c2.58 0 20.58 9.7 22.44 11.48 2.92 2.81 12.29 18.54 12.29 22.44v1.62c0 3-.41 3.92-1.62 5.65l-1.61 4v4h7.26l1.62-.81v-2.42l-.92-3.33 1.61-2.29-9.57-34.76a13.3 13.3 0 01-11.6-7.79c-.78-1.61-4.56-14.23-4.56-15.64v-4c0-1.82.64-1.78 1.66-2.8l16.11-2.05c7.13 4.78 2.23 16.54 21 17 2.31-1.47 4-.06 4-3.23v-2.32l-3.2-.91-4.26-2.91.25-2.71-.88-.86.88-1.57c-4.34-2.9-6.16-11.3-12.92-11.3H638c-7.54 0-12.85 4.84-16.15 4.84-1.52 0-8.11-8.21-20.2-8.07-6.49.07-19.38-3.52-19.38-8.89v-.81c0-4.5 4-5.55 4-11.3l-.65-12.12.16-8.87.78-.3-5.86-6.2-.81 2.42c-.12-.14-3.51-4-.81-4-1.07-4.6-4.74-5.84-8.08-8.07l1-4.81-4.73 2.82-.31-7.71-5.07 6.3c-6.12.16-9.43 2.45-12.92 5.6-1.27 1.15-9.35 8.13-9.48 8.29l4.82-.93c-4.14 6.35-8.85 2.55-8.85 11.43v.81c0 2.88 3.64 4 6.46 4 .08 0 10-3.8 12.92-4-5.42 8.1-1.59 6.55-11.88 10.74-5.48 2.23-9.37 6-9.93 12.68l-8.03-2.43c-8.66-2-11.73-13.37-15.88-20.47-3.65-6.24-11.71-14.52-17-19.32-9.55-8.62-34.34-20.78-51.9-20.78h-4.85c-18.87 0-35.29 6.77-47.33 14.05-8.23 4.94-27.28 22.67-29.45 31.98z"/><path class="cls-27" d="M253.6 215.64l.93-1.58-1.74.77.81.81z"/><path class="cls-4" d="M441.78 216.45l8.08 4.84 7.27-7.26-15.35 2.42z"/><path class="cls-1" d="M234.22 214.83c.62 1.19.18 3.23 3.23 3.23h4c-.19-2.28 0-3.23-2.43-3.23zM253.6 215.64l-.81-.81c-5 0-6.09-1.26-6.46 3.23h2.42c3 0 3.65-.79 4.85-2.42z"/><path class="cls-19" d="M287.52 225.33l4 6.46c-.33-4-1.62-3-1.62-6.46 0-3.25.18-4.74 2.48-5.67l-4.9-8.87c.04 8.21 2.52 4.03.04 14.54z"/><path class="cls-4" d="M291.56 237.45c2.73 5.16 2.56 2.48 5 5.45 1.78 2.15 1.31 5.33 3.66 6.85 1.23.79 13.68 5 15.53 5.46-.75-9-9.66-7.06-6.46-13.72a7.71 7.71 0 01-3.19-6.49v-2.4c2.16-.52 1.52-.81 3.23-.81.07 0 3.46 2.12 4 2.43-.68-2.53-2.24-4.05-3.16-6.54-1.45-3.92-.26-4.89-1-8.69-1-5.18-6.34-4.12-6.23-14l-1.85-2.32.12-12.12c-1.26.85-2.42 1.07-2.42 3.23l-.06 2.44.87 8.87c1 6.05 3.62 5.47 3.48 11l-5.1-5.36c-.94 11.34 8.19 9.94 10.5 18.58h-2.38c-1.86 0-2.43.56-2.43 2.42v4.85c-4.79-.4-5.09-4.28-8.07-6.46.42 5.1 4.63 11 8.88 12.11l-.69.43 3.92 6c-5.91-1.37-5.9-1.92-9.19-6.15-2-2.56-1.94-1.25-4-3.32-2.39-2.4-1.86-5.07-2.96-1.74z"/><path class="cls-28" d="M361.92 185.54l2.46 3.32-1.87 2.45c-8.66-4.55-17.1-11.21-30.57-11.21h-3.23v-1.48l10.47-1.12 3.25.18c14.65 0 18.08 3.28 28.27 5.66l-5 3.87-3.83-1.67zm-19.48 46.25c12.38-.27 8.47-10 14.54-17v-2.35l1.57-.88c2.17-9.31 21.22-27 29.4-32 12-7.28 28.46-14.05 47.33-14.05h4.85c17.56 0 42.35 12.16 51.9 20.78 5.31 4.8 13.37 13.08 17 19.32 4.15 7.1 7.22 18.45 15.88 20.47-.82-9.8-11.56-24.63-16.15-31.5 7.16-3.79 12.59-10.47 22.61-11.3-6.35-4-20.86 8.46-25.85 8.88l-.76-2.44 3.38-3c-2.41.26-3.47 1.36-5 1.36-1.38 0-3.63-2.5-4-4 6.59-1.53 12.6-4.84 21-4.84H533c3.18 0 5.38.41 7.27 1.61l-4 .81 16.19-1.29c-3.81-3-16.11-5.17-22.65-5.17h-6.46c-10.37 0-23 6.46-27.46 6.46-.07 0-10.61-8-12.12-8.87a105.47 105.47 0 00-14.19-6.79c-8.35-3.32-23.14-6.93-34.26-6.93h-2.42c-26.67 0-43.75 11.88-59.77 22.61a71.34 71.34 0 00-28.27-6.46h-7.26c-4.5 0-12.85 2.27-17 3.23v1.61c19.26 0 28.37 7.38 40.39 13.73-3.08 5.83-7.25 10.41-10.78 17.5s-4.93 14.59-7.77 20.5z"/><path fill="#f8afb1" d="M268.95 218.87h2.42v1.62h-2.42z"/><path class="cls-30" d="M542.74 219.68h2.42v-.81l-7.22 1.78.86 3c1.84-2.21.33-2.1 3.94-2.4z"/><path class="cls-12" d="M583.12 214.83c0-4.08 1.3-4.29 1.61-8.07h-1.61l-3.16 8.1h1.54c.21 2.53.81 2.87.81 5.66 0 3.5-1.28 2.49-1.61 6.46l3-3.42.85-3.89c-.76-1.42-1.4-1.38-1.4-3.19z"/><path class="cls-9" d="M328.71 224.52a12.72 12.72 0 014.67 4l1-3.19c-4.75-.39-1.68-1.61-4.84-1.61h-2.44c.55 1.87-1.1 2.28 1.61.8z"/><path d="M238.25 224.52c1.87 3.56.16 2 4 4h3.23c2.66-1.4 3.17-.78 4-4-1.66 1.12-2.09 2.43-4 2.43h-3.23c-1.9.05-2.33-1.31-4-2.43z" fill="#ef4643" fill-rule="evenodd"/><path class="cls-32" d="M231 216.45c0-5 6.26-11.31 11.3-11.31h1.62c18 0 16.58 26.65 1.61 26.65h-3.23c-5 0-11.3-6.26-11.3-11.3v-4zm38 4v-1.62l-8.06-1-.79-4.7 7.39-6.25c-3 .46-5.81 2.22-8.24 2.22-2 0-3-2-4.84-3.23l4.31-8.75-6.53 6.5c-6.92-1.74-6.67-1.87-6.67-9.87l-2.63 8-5.43.93-5.56-6.61 2.46 8.1-4 4.28-7.41-2.81 5.74 5.72-1.74 5.11-9.75.86v.73l9.71 1.52 1 5.72-7.68 4.52c4.16 0 5.26-2.06 9.12-2.06 1 0 2.07 2.71 4 4l-2.81 6.3 5.42-4.5 5.39 1.68 1.11 8.61c4.69-5.63-2.81-7.18 7.85-9.66l5.36 5.9-2.25-8.29 3.8-2.82 8.37 2.94-6.64-6.31c3.26-6.55-.79-5.12 10-5.12zM526.58 230.99v-1.62l-.67-.94-1.89 1.53 2.56 1.03z"/><path class="cls-33" d="M539.5 239.06c0-7.1 4-7.19 6.47-10.5-5 1.17-5.22 3.38-7.27 7.27v3.23z"/><path class="cls-1" d="M611.39 217.26c0 6.65 5.79 14.53 12.11 14.53h3.23c2.79 0 3.13-.59 5.65-.8-3.86-5.28-15.34-6-15.34-19.39v-.81c0-2.78.6-3.12.81-5.65-2.85 1.86-6.46 7.52-6.46 12.12z"/><path class="cls-34" d="M449.86 221.29l-8.08-4.84-2.36-.96-.06-9.54-.6 27.65 11.1-12.31z"/><path class="cls-9" d="M526.58 231l7.14 4.28c-.73-2-.48-5.09-2.29-5.09-.43 0-1.77 1.16-2.42 1.61l-2.43-2.42z"/><path class="cls-32" d="M607.35 218.06v-.8c0-7.8 7.36-17 14.54-17h4.84c7.9 0 15.35 7.54 15.35 15.35v3.23c0 8.57-8.51 16.15-17 16.15h-1.58c-7.45 0-16.15-8.89-16.15-17zm19.38 18.58c8.89 0 17.77-8.88 17.77-17.77v-.81c0-10.54-7.77-20.19-17.77-20.19h-4.84c-6.49 0-16.16 9-16.16 15.35v8.07c0 7.63 9.61 15.35 18.58 15.35z"/><path class="cls-2" d="M611.39 217.26c0-4.6 3.62-10.22 6.46-12.12-.21 2.53-.81 2.87-.81 5.65v.81c0 13.35 11.48 14.11 15.34 19.39-2.52.21-2.86.8-5.65.8h-3.23c-6.32 0-12.11-7.88-12.11-14.53zm-4 .8c0 8.07 8.7 17 16.15 17h1.62c8.45 0 17-7.58 17-16.15v-3.23c0-7.81-7.45-15.35-15.35-15.35h-4.84c-7.18 0-14.54 9.17-14.54 17z"/><path class="cls-35" d="M289.94 225.33c0 3.5 1.29 2.5 1.62 6.46l-4-6.46c2.45-10.51 0-6.38 0-14.54l4.9 8.87c-2.3.93-2.48 2.42-2.48 5.67zm2.2-26c-.15 1.78-.71 2.48-.58 3.41l1 8.05-4.26-6.49 3.88-5zm-2.2 38.94l1.62-.8c1.1-3.33.57-.66 3 1.83 2 2.07 2 .76 4 3.32 3.29 4.23 3.28 4.78 9.19 6.15l-3.92-6 .69-.43c-4.25-1.13-8.46-7-8.88-12.11 3 2.18 3.28 6.06 8.07 6.46v-4.85c0-1.86.57-2.42 2.43-2.42h2.42c-2.31-8.64-11.44-7.24-10.5-18.58l5.1 5.36c.14-5.54-2.49-5-3.48-11l-.87-8.87.06-2.44c0-2.16 1.16-2.38 2.42-3.23l1.62-1.61h-2.43c-3.79 1-12.44 11.41-14.53 14.54l.93 4.81c-1.1 1.49-1.74 1.45-1.74 3.26 0 3.54 2.42 4.86 2.42 8.89 0 .82-1.61 1.76-1.61 4.84v.81c-.04 5.52 3.99 4.57 3.99 12.05z"/><path d="M341.63 235.83v2.42c2.33-1.55 7.05-2.81 8.08-5.65-1 .55-.86.81-2.42.81l-2.28.06-.95 2.36z" fill="#ce2027" fill-rule="evenodd"/><path class="cls-12" d="M320.75 235l.59 5-5.67-2.53 1.5 2.83-7.32-2.53 10 6.88c.57-.31 4-2.43 4-2.43 3.45 0 3.47 2.86 4.85 4.85l.09-4.26-5.74-2.2v-1.62l2.26-.39-4.57-6.07z"/><path class="cls-5" d="M341.63 238.25v-2.42l-.8-.81c-3 2.17-.74 1.33-2.43 4.85h1.6v-1.62z"/><path class="cls-12" d="M551.41 228.54l-4.13 3.79 1.27 4.27-5.1 1.4.09 4.29 3.6-5.15c1.72 1 4.09 2.73 5.29 2.73 2 0 8.77-5.9 9.69-7.27l-7.06 2.91 1.52-2.81-5.72 2.3z"/><path class="cls-37" d="M529.81 252l12.93-3.2c-1.54-6.64-2.77-6.19-8.89-5.68l-5.65-4.85z"/><path class="cls-33" d="M332.75 243.91h.81c0-5.71-2.56-9.4-7.27-10.5 2.29 3.12 6.46 3.59 6.46 10.5z"/><path class="cls-38" d="M358.59 211.6l-1.57.88v2.35l2.42 13.73c-3.48.93-5.65 5.23-5.65 9.69 0 3.75 1.05 6.49 3.23 8.08 1.81-3.78 3-8.88 8.88-8.88 2.95 0 6.46 2.23 6.46 4.84v8.08c0 2.61-2.93 4-5.65 4s-3.13-.6-5.65-.81c1.61 6.93 5.33 8.11 12.11 9.69v19.52l-6.44-.94c-5.8-1-10.5 3.58-10.5 9.69l1.62 3.23c2.69 1.42 5.65 3.23 9.69 3.23h.81c3 0 5.38-2 7.26-3.23 2.85 5.93 5.05 12.11 13.73 12.11h4c4.06 0 8-3.2 8.89-6.46h-2.43a8.64 8.64 0 01-8.07-8.07v-13.69l.9-7.26c3.63.86 6.91 3 11.84 4.2 2.11.52 12.51 1.36 13.91 2.25l19.38-2.42 18.58-11.31h2.42l-.81-1.62c3.62-2.64 7.27-10.39 7.27-17v-.8c0-5.67-2-7.57-2.42-12.12-1.27.85-16.59 17-18.09 19.06-3.58 4.88-19.56 13.21-26.33 10-8.62 0-25.85-3.65-25.85-10.5v-12.06c0-6.76 17.58-11.3 25.85-11.3v-15.35c-9.75 0-20.21 3.86-26.65 7.27a8.78 8.78 0 00-8.08-6.46h-4c-3.66 0-4.55 6.46-10.5 6.46h-.8c-5.37 0-7.06-4.48-8.08-8.89z"/><path class="cls-6" d="M785 175.26l-1.62 29.88v10.5c0 14.29 5.6 21.14 6.46 31.5-3.82-4.41-6.92-10.37-11.49-15.16-4.72-5-9.55-7.75-15.16-11.49-8.86-5.91-20.46-17.8-27.46-25.85.48 5.7 6.91 21 9.53 25.2 6 9.64 9.15 11.19 17.32 18.22 6.16 5.3 12.91 10.37 19.34 15.39s11.81 17.86 14.65 20.31l3.77-60.54v-11.31c0-18.37-13.45-46.12-21.8-55.73.59 6.82 7.09 20.34 6.46 29.08z"/><path class="cls-28" d="M529.81 251.98l-1.61-13.73-6.29-4.32 1.87 21.25 6.03-3.2z"/><path class="cls-19" d="M641.27 247.16c.4.17 8.65 3.15 8.88 3.21-1.82-2.72-3.54-4-8.07-4h-1.62a7.53 7.53 0 00-6.44 3.29z"/><path fill="#ed1c24" fill-rule="evenodd" d="M340.02 247.14v8.88h-1.62l8.67 2.41.66-18.99-7.71 7.7z"/><path class="cls-5" d="M537.89 252.79c5.64-.12 4.56-2.42 7.27-2.42h1.61l2 2.77.42-4.39-11.19 2.68z"/><path class="cls-19" d="M219.68 256.83C224 255.68 224 252 231 252c3.23 0 4 1.67 7.26 2.43-.81-1.11-3.09-3.23-4.84-3.23h-4c-5.42-.02-7.59 2.42-9.74 5.63z"/><path class="cls-37" d="M338.4 256h1.6v-8.88l-1.62.81c-2.16-.52-1.52-.81-3.23-.81s-2.63 1.1-4.66 1.65l-1 4.13z"/><path class="cls-18" d="M609 252c1.06 2.13.81-.66.81 2.43v2.42h.81V252z"/><path class="cls-5" d="M323.09 257.63h1.58c.29-1.21.18-2.43 1.62-2.43 3.74 0 2.43 1.51 7.27 1.62-1.41-1.22-5.52-3.23-8.08-3.23h-3.39z"/><path class="cls-40" d="M457.13 214l-7.27 7.27-11.1 12.31.6-27.65c1.59-6.85 5.89-4.8 8.88-8.89-2.82-.65-2.72-1.61-5.65-1.61h-4.85c-3.41 0-7.41 3.32-9.69 4.84-1.53-2.28-4.33-4.84-8.08-4.84h-4.84c-3.64 0-8.09 2.66-8.89 5.65h3.24c4.42 0 7.07 3.76 8.88 6.46v54.12c6.77 3.19 22.75-5.14 26.33-10 1.5-2 16.82-18.21 18.09-19.06l1.61-1.61 12.93-12.93 4.52-6.1c3.48 0 2.47 1.26 6 1.26h1.61c5.38 0 12.92-4.45 12.92-8.89v-.8c0-5.62-6.28-9.7-12.11-9.7h-1.62c-5.13 0-10.2 2.34-11.3 6.46-4-1.06-5.66-8.07-12.93-8.07h-1.61c-3.75 0-6.48 1.05-8.08 3.23 4.36.36 9.69 5.13 9.69 9.69v.86c-.02 2.29-5.59 6.89-7.28 8z"/><path class="cls-15" d="M658.23 258.44l1.57-.92-1.57-1.5-.88 1.58.88.84z"/><path class="cls-26" d="M418.36 261.68v-33.92c-8.27 0-25.85 4.54-25.85 11.3v12.12c0 6.82 17.23 10.5 25.85 10.5z"/><path class="cls-41" d="M261.68 262.48h.8v-4c0-3.09-.24-.3.81-2.43-4.44 1.16-1.61 1.72-1.61 6.43z"/><path class="cls-26" d="M462.78 232.6c.38 4.55 2.42 6.45 2.42 12.12v.8c0 6.57-3.65 14.32-7.27 17l.81 1.62c9.2-.21 25-6.63 25-15.35v-3.23c0-7.41-11.73-14.36-19.39-14.53z"/><path class="cls-10" d="M528.2 269.75c.53 2.29.81 1.38.81 3.23s-.29 1.07-.81 3.23c1.8.48 2.42.19 2.42 2.43a6.43 6.43 0 01-4 5.65v6.46l1.62.81c2.65-1.78 6.93-5.65 11.3-5.65h4c10.5 0 19.39 11.36 19.39 21.8 0 4.08-1.3 4.29-1.62 8.08 2.87.67 5.66 2.29 5.66 5.65 0 4.1-5.88 9.69-10.5 9.69h-3.23v2.43h5.65c2 0 11.28-8.34 14.05-10.18 5.89-3.92 10.71-5.26 16.64-8.4 1.34-2.53 7.27-13 7.27-15.34v-.81c0-6.85-6.4-9.46-9.49-13.13s-5.31-11.54-8.79-13c-5.73-2.42-10.85-1.9-16.74-5.07-4.52-2.44-8.53-6.43-12.63-9.17h-19.39c-.42 1.81-.8 1.85-.8 4v3.23c-.01 2.21-.39 2.25-.81 4.06z"/><path class="cls-6" d="M75.92 203.53l-.16 4.85 3.39 67c5.66-6.52 7.12-12.36 14.74-20 5.41-5.44 13.16-11.28 19.5-16 11.43-8.57 25.68-25.63 27.14-43.13-2 1.32-10.41 10.81-13.12 13.53a100.07 100.07 0 01-15.15 12.31 77.38 77.38 0 00-15.14 12.32c-5.89 5.83-7.44 11.27-11.51 16 .83-10 6.72-17.5 7.24-32.34.47-13.35-.78-23.78-.78-37.93v-4.84c0-11.72 5-19.26 5.65-27.46-2.82 2.07-12.06 19.84-14.27 24.49-3.97 8.31-7.53 19.25-7.53 31.2z"/><path class="cls-5" d="M596.85 267.33c6.23-1.45 3.23-7.89 3.23-16.15h-.81c0 3.17.15 6.63.06 9.75-.15 5.8-1.18 3.17-4.9 3.17h-3.24v-1.62h-1.61c-.66 2.49-1.57 3.23-4.85 3.23a14 14 0 01-5.65-1.61l-4.7 2c2.52 3.24 11.93 4.45 18.43 4.45v-.81l-8.31-1.45 12.34-2.61z"/><path class="cls-41" d="M613.21 270.53l1.47-2.36-2.54-5.68 1.07 8.04z"/><path d="M528.2 269.75c.42-1.81.81-1.85.81-4v-3.23c0-2.18.38-2.22.8-4l-2.32 1.73-.1 1.5c0 3.49-1.61 3.25-1.61 5.65 0 1.04 1.68 1.86 2.42 2.35z" fill="#e71e25" fill-rule="evenodd"/><path class="cls-12" d="M651 261.68c.93 2.07 1.58 5.65 4.85 5.65H659v-2.42l-4 1v-3.42z"/><path class="cls-18" d="M610.54 268.07l.04 2.49h.81v-3.23l-2.1-3.45-.28 5.13 1.53-.94z"/><path class="cls-19" d="M220.31 266.35l-1.44.17h-2.42c.32 1.4 1.53 4-.81 4-1.81 0-1.77-.64-3.23-1.62.19 2.29 0 3.23 2.42 3.23 4.13 0 7.31-5.18 7.91-8.24zM271.52 269l3.89 3.22v-1.84l11.27 1.84v1.7l-8.08.73v.81c7.3 0 17.24-1.63 20.19-5.66-2.17.52-1.52.81-3.23.81-.49 0-1.68-1.12-2.43-1.63l-6.46.82h-1.57c-2.24 0-1.94-.62-2.42-2.42h-1.62v1.52l-8.08.09-.74-13.76z"/><path class="cls-1" d="M343.25 278.64v-2.43c1.11-1.66 2.42-2.09 2.42-4 0-4.5-1.28-9.32-5.65-9.69z"/><path class="cls-30" d="M260.87 273l2.42.81v-5.65c-1.54 1.75-2.17 1.78-2.42 4.84z"/><path class="cls-15" d="M257.64 274.6c1.36-1 1.61-.12 1.61-2.43s1.09-4.18 1.62-6.46c-2.45 1.8-3.23 4.64-3.23 8.89z"/><path class="cls-30" d="M616.23 273.79l4-.97.04-.64h-3.23l-.81 1.61z"/><path class="cls-19" d="M616.23 273.79l-3.18 1v1.44c3.11-.23 2.4.47 3.18-2.44z"/><path class="cls-15" d="M256 278.64c-.49-.74-1.31-2.43-2.42-2.43s-1.18 1-1.57 1.45z"/><path class="cls-43" d="M464.39 231c7.66.17 19.39 7.12 19.39 14.53v3.23c0 8.72-15.84 15.14-25 15.35h-2.42l-18.58 11.31.81 1.61 17.77 2.42 17-1.61c3.1-2.16 8.7-3.1 13.25-6.13a50.56 50.56 0 0010.39-9c3.49-3.82 3.94-10 6.81-12.57 5.4-4.9 9.11-1.52 14-4.61-20 0-12.75-3.38-20.4-13.52-4.09-5.42-12.67-12.23-20-13.94z"/><path class="cls-19" d="M256 278.64c.29 1.21.18 2.42 1.62 2.42s1.29-1.23 1.57-2.49l-1.61.94z"/><path class="cls-27" d="M528.2 291.56l-1.62-.81.04 1.74 1.58-.93z"/><path class="cls-44" d="M599.27 312.56c21.08 0 27.23 1.5 41.19 8.88 1.21-1.73 1.62-2.67 1.62-5.65v-1.62c0-3.9-9.37-19.63-12.29-22.44-1.86-1.78-19.86-11.48-22.44-11.48h-.81a3.1 3.1 0 00-3.23 3.23c0 4.5 5.65 13.43 5.65 14.54v.81c.04 3.17-8.06 6.72-9.69 13.73z"/><path class="cls-40" d="M551.62 304.48c0 10.2-12.12 19.08-12.12 25.85v.8a4.58 4.58 0 004 4h2.5c2.48 0 3.49-2 4-4-2-.54-4-1.56-4-4v-1.62c0-6.25 6.09-10.91 11.3-9.69.68-2.89 1.62-3.8 1.62-7.27v-4.85c0-6.51-5.76-13.59-12.12-13.73 3.27 4.9 4.82 5.97 4.82 14.51zM456.32 279.44c1.76 2.63 4.84 4.53 4.84 8.89v3.23c0 5.53-5.19 8.55-8.88 10.5l.81.81c2.82.65 2.72 1.61 5.65 1.61h1.62c5.59 0 11-3.78 12.11-8.08 3.59 2.63 5.64 6.47 12.92 6.47h.81c7.64 0 16.15-4.05 16.15-11.31v-1.62c0-12.09-15.79-9.69-25.84-9.69-2.16 0-2.39-1.16-3.23-2.42z"/><path class="cls-26" d="M447.43 299.64l4.85 2.42c3.69-1.95 8.88-5 8.88-10.5v-3.23c0-4.36-3.08-6.26-4.84-8.89L438.55 277v11.31c4.69.1 9.69 2.88 9.69 7.27 0 2.2-.38 2.24-.81 4.06z"/><path class="cls-40" d="M418.36 277.83v9.69c-5.74 0-12.12 2.42-12.12 8.08 0 5.19 4.83 7.67 9.7 8.07 5.09-.11 9.38-1.46 10.5-5.65h1.61c.83 3.11 4.25 5.65 8.08 5.65h3.23c3.8 0 5.78-2.5 8.07-4 .43-1.82.81-1.86.81-4 0-4.39-5-7.17-9.69-7.27V277l-.81-1.61z"/><path class="cls-37" d="M549.2 301.25l-1.62-1.61c-2.25-1.51-3.4-2.43-7.27-2.43h-3.23c-2.27 0-1.49.35-2.42 1.62l4.49.39 11.07 9.27z"/><path class="cls-45" d="M331 308.69l3 1.85-.58.58-2.42-2.43zm10.67 4.68c.42-1.82.81-1.86.81-4v-.81a7.3 7.3 0 00-7.27-7.27h-1.61c-1.42 0-9.94 6.76-10.5 8.88 7.39.62 6.48 6.76 10.69 9.72l1-7.45 1.93 3.86 2.6-4.54z"/><path d="M320.63 308.52a29.59 29.59 0 006.7-5.42c3.08-3.62 2.24-4.27 8.65-4.27-1-1.36-.12-1.62-2.42-1.62h-4.85c-6.11 0-8.08 4.85-8.08 11.31z" fill="#feeff0" fill-rule="evenodd"/><path class="cls-14" d="M351.32 304.48l3.5.64-6.9-11.31-1.82 2.29 5.22 8.38z"/><path d="M256 278.64l1.58.87 1.61-.94c-.28 1.26-.1 2.49-1.57 2.49s-1.31-1.21-1.62-2.42zm0 0c-.49-.74-1.31-2.43-2.42-2.43s-1.18 1-1.57 1.45l4 1zm4.85-5.66c.25-3 .88-3.07 2.42-4.84v5.65l-2.42-.81zm-3.23 1.62c1.36-1 1.61-.12 1.61-2.43s1.09-4.18 1.62-6.46c-2.45 1.8-3.23 4.64-3.23 8.89zm-34.9-10.67c-.6 3.06-3.78 8.24-7.91 8.24-2.44 0-2.23-.94-2.42-3.23 1.46 1 1.42 1.62 3.23 1.62 2.34 0 1.13-2.64.81-4h2.42l1.44-.17 2.43-2.42zm38.94-1.45c0-4.71-2.83-5.27 1.61-6.46-1.05 2.13-.81-.66-.81 2.43v4zm10.56-7.3l.74 13.76 8.08-.09v-1.52h1.62c.48 1.8.18 2.42 2.42 2.42h1.61l6.46-.82c.75.51 1.94 1.63 2.43 1.63 1.71 0 1.06-.29 3.23-.81-2.95 4-12.89 5.66-20.19 5.66v-.81l8.08-.73v-1.7l-11.27-1.84v1.84l-3.91-3.17.72-13.77zm53.24-1.58c2.56 0 6.67 2 8.08 3.23-4.84-.11-3.53-1.62-7.27-1.62-1.44 0-1.33 1.22-1.62 2.43h-1.58l-1-4h3.39zm-105.8 3.23c2.15-3.21 4.34-5.65 9.69-5.65h4c1.75 0 4 2.12 4.84 3.23-3.25-.76-4-2.43-7.26-2.43-7 0-7 3.7-11.31 4.85zM338.4 256l8.67 2.41.66-19-7.71 7.7-1.62.81c-2.16-.52-1.52-.81-3.23-.81s-2.63 1.1-4.66 1.65l-1 4.13 8.93 3.1zm3.23-17.77H340v1.62h-1.6c1.69-3.52-.53-2.68 2.43-4.85l.8.81h2.43l.95-2.36 2.28-.06c1.56 0 1.43-.26 2.42-.81-1 2.84-5.75 4.1-8.08 5.65zm-8.88 5.66c0-6.91-4.17-7.38-6.46-10.5 4.71 1.1 7.27 4.79 7.27 10.5zm-12-8.89l.59 5-5.67-2.53 1.5 2.83-7.32-2.53 10 6.88c.57-.31 4-2.43 4-2.43 3.45 0 3.47 2.86 4.85 4.85l.09-4.26-5.74-2.2v-1.62l2.26-.39-4.57-6.07V235zm12.63-6.5a12.72 12.72 0 00-4.67-4c-2.74 1.44-1.06 1.07-1.61-.8h2.42c3.16 0 .09 1.22 4.84 1.61l-1 3.19zm-20-18.53a8.75 8.75 0 01-8.08-6.46l2.63 2.24 3.87-.41 2.21 2.41 5-1.21c-1.27 2.15-2.33 3.43-5.61 3.43zm15.2-7l3.37-.26 1.83 3.94-3.48.76.81-3-2.54-1.41zm-2.28.55c-2.52-.68-5.77-2.27-6.46-4.85 3.25.76 5.61 1.67 6.46 4.85zm-17.77-5.66v1.62l-3.06 1.89 3.06-3.51zm11.3-4.86v-1.62l1.77 1.46-1.77.16zm-3.23-2.43l2.64 1.27zm0 0c-1.5-2.23-2.32-3.76-5.8-3.78l2.57 1.36v1.62c0 3.28-1.28 4.34-3.24 5.65v-3.23h-.6l-1 5.62 1.61-.81v3.23h.81v-3.83l6.43-1v-1.78l-4.21.86 1.83-3.88zM300.44 189h2.43l-1.62 1.61-.12 12.12L303 205c-.11 9.83 5.22 8.77 6.23 14 .74 3.8-.45 4.77 1 8.69.92 2.49 2.48 4 3.16 6.54-.58-.31-4-2.43-4-2.43-1.71 0-1.07.29-3.23.81V235a7.71 7.71 0 003.23 6.47c-3.2 6.66 5.71 4.72 6.46 13.72-1.85-.42-14.3-4.67-15.53-5.46-2.35-1.52-1.88-4.7-3.66-6.85-2.48-3-2.31-.29-5-5.45l-1.62.8c-3.14 4.69-12.13 8.14-20.17 8.1-12.6-.07-18.1 8.06-19.4 8.06-2.59 0-8.44-4.85-14.54-4.85h-9.69c-4.5 0-5.79 3.05-7.74 6-2.3 3.46-6.52 5.15-3.57 6.13-2.41 5-.3 7.36-8.88 8.07l.81 4c1.81.42 1.85.81 4 .81h4.84c11.51 0 10.17-13 16.15-16.15 5.32.44 17.77-.23 17.77 4.84v2.42c0 2.45-3.36 14.35-4.34 16.66-2.62 6.16-7.43 6.44-12.62 9.19l.91.26-9.79 32 .8 4v5.93l8.91.53h.81l-3.3-9.56-.81-4.84c.47-5.65 8.24-19.5 11.49-23.24.79-.9 22.13-12.3 22.43-12.3 1.63 0 4.85 1.9 4.85 3.23 0 5.26-5.66 12.07-5.66 16.15 0 2.68 5.77 6.65 7.27 8.89l4.85 7.27 5.65 8.88 1.62 3.23h8.88l-4-6.46c-4.4-1.17-5.31-6.8-7.27-10.5-.93-1.77-5.65-10-5.65-11.31 0-4.27 6.5-10.17 9.09-12.72 4.56-4.5 5.7-10.52 8.86-12.94s12.16-2.59 16.77-5c5-2.64 8.75-6.89 12.94-9.45l17.76-1c4.37.37 5.65 5.19 5.65 9.69 0 1.95-1.31 2.38-2.42 4v2.43l-.1 2.3-2.44 1.8 3.35 5.59 1.61.81c2.72-4.06 3.23-9.54 3.37-16.2l7.13 18.62c0-6.11 4.7-10.67 10.5-9.69l6.44.94v-19.52c-6.78-1.58-10.5-2.76-12.11-9.69 2.52.21 2.87.81 5.65.81s5.65-1.43 5.65-4v-8.08c0-2.61-3.51-4.84-6.46-4.84-5.85 0-7.07 5.1-8.88 8.88-2.18-1.59-3.23-4.33-3.23-8.08 0-4.46 2.17-8.76 5.65-9.69L357 214.83c-6.07 7-2.16 16.69-14.54 17l-3.25 1.57c-.53-6.55-4.61-10.77-9.78-12.77-8.51-3.3-7.93-2.91-12-10.6 3.26.27 13.2 4 13.73 4 2.4 0 4-2.14 5.66-3.23-.8-9.61-1.53-7.18-8.89-12.11l-.93-1.57 1.74.76 3.2.91c-.54-1.69-10.24-10-12.22-11.27-8.58-5.63-5.62 1.08-14.4-9l-.42 7.3-4.29-3.41z" fill="#050507" fill-rule="evenodd"/><path fill="#741112" fill-rule="evenodd" d="M333.38 311.12l.58-.58-3-1.85 2.42 2.43z"/><path class="cls-14" d="M341.63 313.37a11.73 11.73 0 008.08 4h4v-4c0-4.46-1.61-5.41-2.43-8.89-6.22-4.56-8.58-15.34-22.61-15.34-5.22 0-8.76 5.12-8.88 10.5 2.07-1.52 3.89-5.66 8.07-5.66 4.83 0 18.58 5.77 18.58 12.12v.8a6.12 6.12 0 01-4.81 6.47z"/><path fill="#8f191c" fill-rule="evenodd" d="M540.31 308.52v-.81l-3.14 2.63 3.14-1.82z"/><path class="cls-44" d="M230.18 319.83c4.85-1.13 10.67-4.47 17.28-6.14s15.12-1.13 23.1-1.13c-1.5-2.24-7.27-6.21-7.27-8.89 0-4.08 5.66-10.89 5.66-16.15 0-1.33-3.22-3.23-4.85-3.23-.3 0-21.64 11.4-22.43 12.3-3.25 3.74-11.02 17.59-11.49 23.24z"/><path class="cls-14" d="M310.13 301.25v5.65c0 3.48.95 4.38 1.62 7.27 6.85 0 11.31 4.6 11.31 11.31v.81c0 2.84-2.33 2.51-4 4.84 1 1.49 2.35 3.23 4.84 3.23 3.27 0 5.66-1.75 5.66-4.84 0-8.68-12.12-14.71-12.12-26.65 0-9.28 2.11-9.7 5.66-14.54-6.1.13-12.97 7.56-12.97 12.92zM547.58 299.64l1.62 1.61c-.12-5.35-2.73-10.5-8.08-10.5h-4.85c-6.08 0-12.09 8.59-16.15 11.31.84-3.13 2.43-2.82 2.43-4 0-2.23-.63-1.94-2-2.16l-6.09 10.24h3.23a19 19 0 00-2.42 9.69v.81c0 1.86.56 2.42 2.42 2.42h.81a11.65 11.65 0 008.07-4c-1.29-1.93-4-3.6-4-5.65v-1.62c0-6.23 12.12-12.11 17.76-12.11h.81c3.21-.08 5.73 1.32 6.44 3.96z"/><path class="cls-45" d="M531.43 317.4h1.49l.77-1.53 1 4 .81.8c4.66-1.68 1.08-7.49 10.5-9.69-.93-3.45-1.16-2.42-5.66-2.42l-3.14 1.82 3.14-2.63h1.62l.43-.89-4.47-1.53v-2.42c-2.17-.52-1.52-.81-3.23-.81-3.32 0-8.08 3.95-8.08 6.46v3.23c-.03 5.3 3.06-1.95 4.82 5.61z"/><path class="cls-32" d="M531.43 317.4l3.23 2.43-.97-4-.77 1.53-1.49.04z"/><path class="cls-1" d="M594.43 318.21h4l8.08-.81h8.88l7.27 1.62 9.69 3.23 6.47 3.23 1.61-4c-14-7.38-20.11-8.88-41.19-8.88z"/><path class="cls-6" d="M46 240.68c0 12 7.33 38.62 11.06 47.89 3.22 8 12.36 37.93 12.36 47.41 1.57-1.15 9.16-21 13.53-26 6.08-7 12.85-14.48 19.38-21 13.87-13.86 25.24-28.09 25.24-55.53-2.09 1.39-11.47 14.72-13.73 17.77-4.76 6.45-9.74 11.17-15.53 16.77-6.19 6-10.27 8.3-15.5 16-2.18 3.2-4.28 6.91-6.11 10s-2.63 8.15-4.7 11.31l1.5-25.86V273c0-22.86-14.93-44.9-14-62.21l1.93-25C55.35 194.43 46 225 46 240.68z"/><path class="cls-43" d="M415.94 303.67c-1.78 6.67-11.67 7.27-17.77 4 .18 8 6.85 12.92 15.34 12.92h.81c3.71 0 8.67-2.82 9.69-5.65h2.43c1.13 4.23 7.35 6.46 12.92 6.46h.81c6.22 0 15.34-5.64 15.34-11.31 0-2.61-1.5-5.51-2.42-7.26l-.81-.81-4.85-2.42c-2.29 1.53-4.27 4-8.07 4h-3.23c-3.83 0-7.25-2.54-8.08-5.65h-1.61c-1.12 4.26-5.44 5.61-10.5 5.72z"/><path class="cls-28" d="M230.18 319.83l.81 4.84 15.34-5.67 12.12-.81 9.69.81 7.27.81-4.85-7.27c-8 0-16.42-.56-23.1 1.13s-12.46 5.03-17.28 6.16z"/><path class="cls-50" d="M266.52 325.48l.81.81 13.73 2.42-5.65-8.88-7.27-.81-3.35.36 1.95.79-2.86 1.62 2.64 1.27v2.42z"/><path class="cls-26" d="M304.48 321.44c0 4.17 5.92 7.27 10.5 7.27 2.18 0 2.23-.39 4-.81v-2.42c0-2.86-5-5.65-8.08-5.65h-4c-1.32 0-2.42.48-2.42 1.61z"/><path class="cls-51" d="M599.27 325.48l17 .81.77-8-1.58-.93h-8.88c-1.47 3.08-.21 5.87-.42 6.36-.93 2.09-4.05-.04-6.89 1.76z"/><path class="cls-6" d="M816.72 201.9l-.19 7.28c0 23.28-13.73 38.73-13.73 64.61l-.28 8.91 1.89 20.17c-1.87-2.16-7.53-15.52-11.16-20.34a69.85 69.85 0 00-15.64-15.86c-6-4.7-10-10.7-15-16.5-3-3.5-11.91-16.9-13.93-18.38 0 26.78 11.27 42.37 24.84 55.93 6.08 6.08 14.74 14.17 19.59 20.79s11.56 24.17 13.73 26.66c0-8.73 8.77-37.06 11.65-45.69 3.44-10.31 11.77-34.51 11.77-46.38v-5.65c0-12.93-9.16-44.7-14.69-50.87z"/><path class="cls-52" d="M266.52 325.48v-2.42l-2.64-1.27 2.86-1.62-1.95-.79 3.35-.36-9.69-.81c2.34 5.68-5.25 7.27 8.07 7.27z"/><path class="cls-45" d="M550 327.1a3.11 3.11 0 003.24 3.23c5.87 0 11.17-3.09 11.3-8.89-1.81-.42-1.85-.81-4-.81h-1.61c-3.34 0-8.93 3.51-8.93 6.47z"/><path class="cls-53" d="M596.85 325.48h2.42c2.84-1.8 6 .33 6.85-1.72.21-.49-1-3.28.42-6.36l-8.08.81-.71.79.67 5.55z"/><path class="cls-54" d="M589.58 326.29l7.27-.81 1.57-.93-.67-5.55.71-.79h-4.04l-1.57.88-3.27 7.2z"/><path class="cls-55" d="M246.33 319c-.08 3.73-.81 2.71-.81 5.65 0 1.81.93 2.44 1.62 3.23l20.19-1.61-.81-.81c-13.32 0-5.73-1.59-8.07-7.27zM616.23 326.29l4.85 1.61h1.61v-2.42c0-2.07-.19-2-.8-3.63l1.76-.47-1-2.36-7.27-1.62 1.58.93z"/><path class="cls-56" d="M621.08 327.9l10.5 4.85.8-10.5-9.69-3.25 1 2.36-1.76.47c.61 1.68.8 1.56.8 3.63v2.42z"/><path class="cls-57" d="M231 324.67l3.23 9.69 12.92-6.46c-.69-.79-1.62-1.42-1.62-3.23 0-2.94.73-1.92.81-5.65z"/><path class="cls-10" d="M280.25 315c9.35 2.18 26.72 18.58 29.08 18.58h8.07c-1.07-4-13.73-2.8-13.73-10.5v-.81c0-4.42 2.92-5.64 6.46-6.46-.75-3.26-2.42-4-2.42-7.27v-8.88c0-5.19 10-13.73 17-13.73 9.86 0 14.34 6 19.39 6.46v-4l-3.35-5.59 2.44-1.8.1-2.3-3.29-16.22-17.76 1c-4.19 2.56-8 6.81-12.94 9.45-4.61 2.44-13.49 2.51-16.77 5s-4.3 8.44-8.86 12.94c-2.59 2.55-9.09 8.45-9.09 12.72.02 1.41 4.74 9.62 5.67 11.41z"/><path fill="#fbd0d0" fill-rule="evenodd" d="M291.56 331.94l8.66 3.85.59-1.1-11.67-9.21h-1.62l4.04 6.46z"/><path d="M233.41 334.36l-8.91-.53v-5.93l-12 7.29 16.87 2.4c.78.09 3.57-2.59 4.04-3.23z" fill="#f7922f" fill-rule="evenodd"/><path fill="#feeeee" fill-rule="evenodd" d="M582.31 327.9h-1.61l2.42-5.65-18.26 11.39.64 1.13 16.81-6.87z"/><path class="cls-52" d="M595.23 335.17l-4.03.81 20.99 1.62.93-3.33-1.29-2.24.36-2.51-11.3-.81-.81 6.46h-4.85z"/><path class="cls-51" d="M256.83 330.33l1.62 1.61s-.81 1.51-.81 1.62c0 2.56.23 3 3.23 3.23H277l-1.61-.81h-7.32l.05-5.65z"/><path class="cls-50" d="M275.41 335.98l-2.43-4.85h1.62l-6.46-.8-.05 5.65h7.32z"/><path d="M586.35 331.13c2.8.93.66 2.66-.81 4.85h5.65l4-.81.81-4h-1.61v-1.61z" fill="#fae9c6" fill-rule="evenodd"/><path class="cls-54" d="M594.42 329.52v1.61h1.62l-.81 4.04h4.85l.81-6.46-6.47.81z"/><path d="M585.54 336c1.47-2.19 3.61-3.92.81-4.85L570 335.41l.18 1z" fill="#fef5e4" fill-rule="evenodd"/><path class="cls-63" d="M631.58 332.75l5.69 4.16 1.58-.93.64-2.26-1.6-1.84.96-2.36v-4.04l-6.47-3.23-.8 10.5z"/><path class="cls-64" d="M638.85 336c3.91-.33 5.06-1.62 9.69-1.62 2.78 0 3.12.6 5.9.43l-8.33-5.27h-7.26l-1 2.36 1.6 1.84z"/><path d="M275.41 336l1.61.81 14.54.8c2.52.2 1.75-.55 4.95-1.16l-13-4.49h-.8l-8.08-.81H273z" fill="#fcd1b9" fill-rule="evenodd"/><path class="cls-55" d="M251.18 331.13l.8 8.08 8.89-2.42c-3-.25-3.23-.67-3.23-3.23 0-.11.79-1.6.81-1.62l-1.62-1.61z"/><path class="cls-28" d="M364.25 387.67c-4.31-.36-20.88-7.34-26.34-9.2-7.27-2.48-20.74-7-29.39-7h-1.62c-8.18 0-14.53 4-14.53 12.11v1.62c0 5.55 5.88 10.49 12.11 10.49h.81c5.9 0 11.65-7.32 12.11-12.92-3.14 2.11-5.72 6.46-11.3 6.46-2.66 0-6.46-2.46-6.46-4 0-3.44 4.4-7.27 8.07-7.27h4c6.28 0 10.19 2.8 15.35 3.23-.74 8.79-12.69 18.57-24.23 18.57h-.81c-14 0-26.65-12.06-26.65-24.23v-4.84c0-18 17-31.5 35.53-31.5 18.69 0 40.57 9.11 57 13.25 16.91 4.24 41.43 8.56 61.71 8.56h17c15.5 0 42.55-4.84 54.21-8.78 9.3-3.15 40-13 50-13h4c19.58 0 38.77 13.33 38.77 30.69v2.42a28.21 28.21 0 01-28.27 28.27h-.81c-10.33 0-21.57-11.43-23.42-19.38 4.17-.35 8.84-3.23 14.54-3.23s13.73 2.8 13.73 8.07c0 1.58-3.81 4-6.46 4h-.81c-5.81 0-8.49-3.22-12.12-5.65.56 6.67 7.81 11.3 14.54 11.3 4.89 0 10.5-3.94 10.5-8.88v-1.61c0-9-10.68-13.73-20.19-13.73-8.45 0-44.89 14.68-55.74 17.75-20.13 5.71-36.7 11.32-63 11.32-15.31 0-64.23-8.07-71.88-12.92zm-84-44.42l5.91-2.75-7.52-1.29-13.73.81-9.69 2.42-13.73 8.88a12.39 12.39 0 00-5.66 10.5v2.43c0 4.78 5.88 10.1 8.89 12.11-.68-2.89-1.62-3.79-1.62-7.27v-.81c0-1.85 1.74-5.84 2.42-7.26l11.31-11.31 10.5-4.85 12.92-1.61zm314.18-4.85l-14.56.38c3.36 3.34 7.47 4.47 13.75 4.47l4.84.81 11.31 4.84 12.12 13.73c.21 2.53.8 2.87.8 5.65v2.43c0 2.18-.38 2.22-.8 4 3.23-1.71 8.07-5.84 8.07-10.5v-5.66c0-4.34-5-8.87-8.07-10.5l-9.7-5.65-11.3-3.23-6.46-.81zm-8.08-7.27L570 335.41l.18 1 15.33-.4h5.65l21 1.61 8.89 4 7.27 5.66 4.45 5.28 11.64 2.3c-1.82-8.39-10.29-16.2-16.9-19.7l-4.85-2.42-10.5-3.23-11.3-.81-6.46.81-8.08 1.61zm-36.35-4c0-3 5.59-6.47 8.89-6.47h1.61c2.19 0 2.23.39 4 .81-.13 5.8-5.43 8.89-11.3 8.89a3.11 3.11 0 01-3.2-3.26zm-216.44-4.85c1.05 2.13.8-.67.8 2.42 0 5.77-2.65 7.23-4.84 10.5l45.15 12.39c-1-4.89-3.15-7.46-3.15-14 0-1.95 1.61-3.59 1.61-6.46 0-.35-12.57-13.69-13.73-14.54l-3 1.89c-.25 2.94-1.12 6.18-4.22 6.18h-.81c-4.78 0-8.43-4.84-10.49-4.84-1 0-6.44 5.22-7.27 6.46zM315 328.71c-4.58 0-10.5-3.1-10.5-7.27 0-1.13 1.1-1.61 2.42-1.61h4c3.07 0 8.08 2.79 8.08 5.65v2.42c-1.81.42-1.86.81-4 .81zm26.65-15.34l-2.39-1.65-2.6 4.54-1.93-3.86-1 7.45c-4.21-3-3.3-9.1-10.69-9.72.56-2.12 9.08-8.88 10.5-8.88h1.61a7.3 7.3 0 017.27 7.27v.81c0 2.18-.39 2.22-.81 4zm193.84 7.26c4.66-1.68 1.08-7.49 10.5-9.69-.93-3.45-1.16-2.42-5.66-2.42v-.81h1.62l.43-.89-4.47-1.53v-2.42c-2.17-.52-1.52-.81-3.23-.81-3.32 0-8.08 3.95-8.08 6.46v3.23c0 5.34 3.09-1.91 4.85 5.65-1.46-1-1.42-1.61-3.23-1.61-.86 0-5.43 4.84-9.69 4.84h-.81c-4.2 0-3.3-5.41-7.27-8.07l-14.24 14.82c.54 1.3 1.32 2.1 1.32 4.56v6.46c0 1.7-1.87 6.52-2.42 8.89l45.21-12.16c-4.76-7.09-4.83-1.63-4.83-14.5zm-214.86-12.11a29.59 29.59 0 006.7-5.42c3.08-3.62 2.24-4.27 8.65-4.27-1-1.36-.12-1.62-2.42-1.62h-4.85c-6.11 0-8.08 4.85-8.08 11.31zm30.69-4l-5.22-8.38 1.82-2.29 6.9 11.31-3.5-.64zm197.88-3.23l1 7.24-11.07-9.27-4.49-.39c.93-1.27.15-1.62 2.42-1.62h3.23c3.87 0 5 .92 7.27 2.43-.71-2.68-3.23-4-6.46-4h-.81c-5.64 0-17.76 5.88-17.76 12.11v1.62c0 2.05 2.74 3.72 4 5.65a11.65 11.65 0 01-8.07 4h-.81c-1.86 0-2.42-.56-2.42-2.42v-.81a19 19 0 012.42-9.69h-3.23l6.09-10.24c1.36.22 2-.07 2 2.16 0 1.22-1.59.91-2.43 4 4.06-2.72 10.07-11.31 16.15-11.31h4.85c5.35 0 8 5.15 8.08 10.5zm-197.88 3.23c.82 3.48 2.43 4.43 2.43 8.89v4h-4a11.73 11.73 0 01-8.08-4 6.12 6.12 0 004.85-6.47v-.8c0-6.35-13.75-12.12-18.58-12.12-4.18 0-6 4.14-8.07 5.66.12-5.38 3.66-10.5 8.88-10.5 14 0 16.39 10.78 22.61 15.34zm200.3 0c0 10.2-12.12 19.08-12.12 25.85v.8a4.58 4.58 0 004 4h2.5c2.48 0 3.49-2 4-4-2-.54-4-1.56-4-4v-1.62c0-6.25 6.09-10.91 11.3-9.69.68-2.89 1.62-3.8 1.62-7.27v-4.85c0-6.51-5.76-13.59-12.12-13.73 3.3 4.93 4.85 6 4.85 14.54zm-241.49-3.23c0-5.36 6.83-12.79 12.93-12.92-3.55 4.84-5.66 5.26-5.66 14.54 0 11.94 12.12 18 12.12 26.65 0 3.09-2.39 4.84-5.66 4.84-2.49 0-3.84-1.74-4.84-3.23 1.71-2.33 4-2 4-4.84v-.81c0-6.71-4.46-11.31-11.31-11.31-.67-2.89-1.62-3.79-1.62-7.27v-5.65zm168.8 29.08v.8c2.82-.65 2.72-1.61 5.66-1.61h3.23a3.1 3.1 0 013.23 3.23v1.61c0 9.8-4.53 17.77-14.54 17.77-5.46 0-9.13-2.42-12.12-2.42h-1.61c-4.08 0-4.29 1.3-8.08 1.61.43-1.81.81-1.85.81-4 0-6.75-5.58-5.66-12.11-5.66h-17.77c-6.53 0-12.12-1.09-12.12 5.66v.8c0 2.63.7.61 1.62 4-1.79-.94-3.94-2.42-6.46-2.42h-2.43c-5.9 0-8.63 2.42-14.53 2.42h-.81c-7.08 0-12.12-7.74-12.12-15.34v-3.23c0-2.19.39-2.23.81-4h4c4.3 0 9.69 2.47 9.69 6.46 0 2-2.22 3.23-3.23 3.23-3 0-1.53-.53-4.84-.81.94 4.07 3.14 7.27 8.07 7.27h4.85c3.21 0 11.84-4.82 13.73-6.46-3.34-2.12-12.77-5.18-17.5-7.54-5.16-2.58-10.7-5.92-14.61-9.62-6-5.68-20-18.82-22-27.26l-1.62-3.23-7.13-18.69c-.14 6.66-.65 12.14-3.37 16.2l-1.61-.81v4c-5.05-.42-9.53-6.46-19.39-6.46-7 0-17 8.54-17 13.73v8.88c0 3.23 1.67 4 2.42 7.27-3.54.82-6.46 2-6.46 6.46v.81c0 7.7 12.66 6.47 13.73 10.5h-8.07c-2.36 0-19.73-16.4-29.08-18.58 2 3.7 2.87 9.33 7.27 10.5h1.62l11.68 9.21-.6 1.1-8.66-3.85h-8.08l13 4.49c-3.2.61-2.43 1.36-4.95 1.16l-14.54-.8h-16.04l-8.87 2.46-9.69 4.85-6.46 5.65c-1.29 4.85-9 6-14.54 6.46 1.41-6.05 8.91-16.26 14.54-17.77l5.66-4 9.69-3.23 5.65-.8h11.31l6.46.8 8.08.81-1.62-3.23-13.73-2.42-20.19 1.61-12.92 6.46h-.81c-.47.64-3.26 3.32-4 3.23l-16.87-2.4 12-7.29-.8-4c-5 1.17-18.53 11.67-20.94 14.74l21.83 2.19-.09.84c-4 6-9.66 11-10.48 21l17-4.08v4.85c0 9.38 12.75 15.87 19.38 19.38-1.27-5.43-3.23-7.17-3.23-14.54v-.8c0-8.83 21.3-21 31.5-21-3.92 7.4-10.5 12.75-10.5 24.23 0 21.5 14.4 36.34 35.53 36.34 19.67 0 28.56-22.61 29.89-22.61 2.71 0 36.57 12.43 43.76 14.39 9.88 2.68 38.92 8.22 49.92 8.22h8.08c19.87 0 37-3.93 53.64-7.74 10.59-2.41 40.52-14.74 46.51-14.87 2.26 8.47 15.62 22.61 26.65 22.61h6.46c14.31 0 30.69-15.12 30.69-29.07v-4.85c0-13.62-4.32-18.63-9.69-26.65 10.75 0 29.07 10.75 29.07 19.38v6.46c0 3-1.44 6.84-2.42 8.89 11.91-.27 17.59-10 18.58-21.81 5.25 0 14.53 3.51 14.53-.81 0-13.66-17.39-18.57 4-18.57h2.43c6.64 0 12.91 1.48 3.72-5.34-4.21-3.12-7.61-5.59-11.8-8.39v2.42l-1.62.81 8.33 5.27c-2.78.17-3.12-.43-5.9-.43-4.63 0-5.78 1.29-9.69 1.62l-1.58.93-5.69-4.16-10.5-4.85-4.85-1.61-17-.81h-2.42l-7.27.81-.88 1.57h-6.39l-16.8 6.87-.65-1.13 18.26-11.39 6.46-7.27c-5.93 3.14-10.75 4.48-16.64 8.4-2.77 1.84-12.1 10.18-14.05 10.18h-5.65v-2.43h3.23c4.62 0 10.5-5.59 10.5-9.69 0-3.36-2.79-5-5.66-5.65.32-3.79 1.62-4 1.62-8.08 0-10.44-8.89-21.8-19.39-21.8h-4c-4.37 0-8.65 3.87-11.3 5.65l-1.58.93v-8.2c-3.44-5.14-3.23-11.73-3.23-20.19h-.8c-.09 27.54-25.14 56.4-43.71 66.23z"/><path class="cls-51" d="M612.19 337.6l8.89 4.03v-6.46h1.61v-2.42l-10.5-3.23-.36 2.51 1.29 2.24-.93 3.33z"/><path class="cls-56" d="M241.49 334.36l-.12 4.95 1.69 2.31-.77 2.44 9.7-4.85-.81-8.08-9.69 3.23z"/><path class="cls-26" d="M425.63 341.63h17.77c-.76-2.81-4.82-8.88-8.08-8.88h-.81c-5.31 0-6.96 5.25-8.88 8.88z"/><path d="M593.62 343.25l-.65-1.46 1.46-1.77v-1.62l-14.56.38c3.36 3.34 7.47 4.47 13.75 4.47z" fill="#faeaca" fill-rule="evenodd"/><path class="cls-55" d="M621.08 341.63l7.27 5.66 2.42-5.66-2.6-.04.99-3.19-1.62-3.23-4.85-2.42v2.42h-1.61v6.46z"/><path class="cls-53" d="M280.25 343.25l5.91-2.75-7.52-1.29-.81 4.04h2.42z"/><path class="cls-44" d="M333.56 322.25c1.05 2.13.8-.67.8 2.42 0 5.77-2.65 7.23-4.84 10.5l45.15 12.39c-1-4.89-3.15-7.46-3.15-14 0-1.95 1.61-3.59 1.61-6.46 0-.35-12.57-13.69-13.73-14.54l-3 1.89c-.25 2.94-1.12 6.18-4.22 6.18h-.81c-4.78 0-8.43-4.84-10.49-4.84-1.02 0-6.49 5.21-7.32 6.46z"/><path class="cls-54" d="M593.62 343.25l4.84.81.85-3.92 1.58-.93-6.47-.81v1.62l-1.45 1.77.65 1.46z"/><path class="cls-28" d="M457.13 339.21a21 21 0 0014.53 5.65h4c5.27 0 7.6-4.13 9.69-7.27-2.52.21-2.87.81-5.65.81h-1.62c-1.32 0-2.42-.48-2.42-1.61 0-4.05 1.58-3.4 3.23-5.66v-.8z"/><path class="cls-44" d="M535.47 320.63l-.81-.8-3.23-2.43c-1.46-1-1.42-1.61-3.23-1.61-.86 0-5.43 4.84-9.69 4.84h-.81c-4.2 0-3.3-5.41-7.27-8.07l-14.24 14.82c.54 1.3 1.32 2.1 1.32 4.56v6.46c0 1.7-1.87 6.52-2.42 8.89l45.21-12.16c-4.76-7.13-4.83-1.63-4.83-14.5z"/><path class="cls-52" d="M598.46 344.06l11.31 4.84c2.72-.73 2.05-2 2.42-6.46l-11.3-3.23-1.58.93z"/><path class="cls-50" d="M264.91 340.02l2.42 4.84 12.92-1.61h-2.42l.81-4.04-13.73.81z"/><path class="cls-51" d="M255.22 342.44l.04 6.39 1.57.88 10.5-4.85-2.42-4.84-9.69 2.42z"/><path class="cls-63" d="M235.83 338.4l-.32 2.26-1.29 2.59.81-.11.8 6.57 6.46-5.65.77-2.44-1.69-2.31.12-4.95-5.66 4.04z"/><path class="cls-38" d="M411.9 339.21c-1.89 1.64-10.52 6.46-13.73 6.46h-4.85c-4.93 0-7.13-3.2-8.07-7.27 3.31.28 1.8.81 4.84.81 1 0 3.23-1.23 3.23-3.23 0-4-5.39-6.46-9.69-6.46h-4c-.42 1.81-.81 1.85-.81 4v3.23c0 7.6 5 15.34 12.12 15.34h.81c5.9 0 8.63-2.42 14.53-2.42h2.43c2.52 0 4.67 1.48 6.46 2.42-.92-3.43-1.62-1.41-1.62-4v-.8c0-6.75 5.59-5.66 12.12-5.66 1.92-3.62 3.57-8.88 8.88-8.88h.81c3.26 0 7.32 6.07 8.08 8.88 6.53 0 12.11-1.09 12.11 5.66 0 2.18-.38 2.22-.81 4 3.79-.31 4-1.61 8.08-1.61h1.61c3 0 6.66 2.42 12.12 2.42 10 0 14.54-8 14.54-17.77v-1.61a3.1 3.1 0 00-3.23-3.23h-3.23c-2.94 0-2.84 1-5.66 1.61-1.65 2.26-3.23 1.61-3.23 5.66 0 1.13 1.1 1.61 2.42 1.61h1.62c2.78 0 3.13-.6 5.65-.81-2.09 3.14-4.42 7.27-9.69 7.27h-4a21 21 0 01-14.53-5.65l-11.35.47c-3 .71-4.59-11.78-11.27-11.78-4.93 0-8.67 7.73-9.69 12.12-5.54 0-4.31-1.62-8.08-1.62h-.8c-2.27.03-2.31.42-4.12.84z"/><path class="cls-5" d="M322.65 352.54l2.83.4-.4-2.83-2.43 2.43z"/><path class="cls-12" d="M334.41 351.34l4 1.6c-.08-3.58.26-3.75-3.08-4z"/><path class="cls-63" d="M628.35 347.29l4.45 5.28 11.64 2.3c-1.82-8.39-10.29-16.2-16.9-19.7l1.62 3.23-1 3.19h2.6z"/><path class="cls-64" d="M235.83 349.71l-.8-6.57-.81.11 1.29-2.59.32-2.26c-5.63 1.51-13.13 11.72-14.54 17.77 5.52-.46 13.25-1.61 14.54-6.46z"/><path class="cls-56" d="M241.49 351.32l4.03 9.7 11.31-11.31-1.57-.88-.04-6.39-13.73 8.88z"/><path class="cls-5" d="M326.78 356.8l2.8.99.38-4.82-.87-.27-2.31 4.1z"/><path class="cls-4" d="M533 356.13l1.76 3.36-2.55 3.95c2.14-.18 4.84-1.31 4.84-3.23 0-1.56-1.1-2.63-1.67-5z"/><path class="cls-51" d="M609.77 348.9l12.12 13.73 2.53-4.1-2.27-3.17-.26-7.27-9.7-5.65c-.37 4.5.3 5.73-2.42 6.46z"/><path class="cls-4" d="M481.35 366.67h4c2.19 0 2.23-.39 4-.81-1.38-1.2-1.4-1.61-4-1.61h-4z"/><path class="cls-44" d="M441.78 419.17h3.1l.94 10.49v2.42h4.85v2.42h-8.89v-15.33zM458 433.71l-2-.08 4.24-16.31h1.32l8.47 14.78h-4.75l-.91-3.2h-5.45l-1 4.81zm-26.69-8.08c0 1.83 3.79 6.88 4.85 8.88h-4l-4.06-5.64v5.65h-3.23v-15.35h3.23v6.46c4.08-2.73 3.16-6.05 8.08-6.46-.93 3.47-4.85 5.07-4.85 6.46zm-21.8 0v2.42a4.58 4.58 0 004 4h.81c2.18 0 2.23-.39 4-.83l-.76 2.44h-3.23c-4.51 0-8.88-2.37-8.88-6.46 0-10 13.13-12.84 13.73-5.65-3.43-.92-1.42-1.62-4-1.62h-1.62c-2.61 0-4 2.94-4 5.66zm-40.87-3l-2-1.12 11.29-11.66 1.73.44v16.25l-3.2-.9v-3.24c0-2.76-3-3-5.52-3.14l-2.23 3.36zm114.87-9.85c3.78.87 4.82 10.54 5.14 14.47l-.44.76-12.52-7.21 2.46 9.68-2.17-.05-3.4-14.5.43-.86 12.71 7.27-2.21-9.56zM390.09 424v1.62a3.1 3.1 0 003.23 3.23c3.94 0 5.66-8.37 5.66-12.92h2.42c-.12 5.28-2.29 14.53-8.08 14.53-3.35 0-7.27-2.27-7.27-5.65 0-4.69 2.08-7.14 2.47-11.47l4 1a19 19 0 00-2.42 9.69zm100.31-13c2.53-1.35 5.49-3.16 9.53-3.16h2.42c2.76 0 4.85 4.5 4.85 7.27 0 6.24-6.22 8.51-10.8 9.47l-6-13.58zm157.33-84.73c4.19 2.8 7.59 5.27 11.8 8.39 9.19 6.82 2.92 5.34-3.72 5.34h-2.43c-21.43 0-4 4.91-4 18.57 0 4.32-9.28.81-14.53.81-1 11.82-6.67 21.54-18.58 21.81 1-2 2.42-5.89 2.42-8.89v-6.46c0-8.63-18.32-19.38-29.07-19.38 5.37 8 9.69 13 9.69 26.65V378c0 13.95-16.38 29.07-30.69 29.07h-6.46c-11 0-24.39-14.14-26.65-22.61-6 .13-35.92 12.46-46.51 14.87-16.67 3.81-33.77 7.74-53.64 7.74h-8.08c-11 0-40-5.54-49.92-8.22-7.19-2-41.05-14.39-43.76-14.39-1.33 0-10.22 22.61-29.89 22.61-21.13 0-35.53-14.84-35.53-36.34 0-11.48 6.58-16.83 10.5-24.23-10.2 0-31.5 12.17-31.5 21v.8c0 7.37 2 9.11 3.23 14.54-6.63-3.51-19.38-10-19.38-19.38v-4.85l-17 4.08c.82-10 6.47-15 10.48-21l.09-.84-21.83-2.19c2.41-3.07 15.94-13.57 20.94-14.74l9.79-32-.91-.26c5.19-2.75 10-3 12.62-9.19 1-2.31 4.34-14.21 4.34-16.66v-2.42c0-5.07-12.45-4.4-17.77-4.84-6 3.16-4.64 16.15-16.15 16.15h-4.83c-2.19 0-2.23-.39-4-.81 1 12 8.6 19 13.73 26.65-7 13.31-21 24.09-21 46v4c0 7.29 2.81 11.94 3.23 17h8.08c21.91 0 43.35 42.8 88.84 42.8h1.61c11.05 0 21.12-4.84 27.46-4.84.34 0 16.34 12.77 18.74 14.37 7.59 5.08 13.54 7.66 22.19 11.73 14.58 6.87 34.2 11.86 55.18 11.86h18.54c18.83 0 41.58-6 55.4-11.63 5.71-2.32 17-8.29 21.46-11.66 1.93-1.46 19.13-14.67 19.24-14.67 5.33 0 14.85 4.84 26.66 4.84h7.27c36.29 0 63.33-42.8 84-42.8h8.08c.37-4.48 3.23-11.33 3.23-16.16 0-17.21-12.51-43.84-21.81-50.07 5.64-8.41 14.24-17.17 14.54-30.69-18.77-.42-13.87-12.18-21-17l-16.11 2.05c-1 1-1.66 1-1.66 2.8v4c0 1.41 3.78 14 4.56 15.64a13.3 13.3 0 0011.6 7.79l9.57 34.76-1.62 2.34z"/><path class="cls-11" d="M329.09 352.7l.87.27-.38 4.82-2.8-1 2.31-4.1zm-4-2.59l.4 2.83-2.83-.4 2.43-2.43zm10.23-1.11c3.34.23 3 .4 3.08 4l-4-1.6.91-2.38zm-3.38.75h-4c-.84-1.26-1.07-2.42-3.23-2.42h-1.61c-1.81 0-1.78.64-3.41 1.64l1 4.82H315c.68 1.4.87 4.05 2.42 3.81h7.27l.05 1.34-9.1 1.39 1 4.08 9.68-1.7c-.42 1.81-.81 1.86-.81 4s1.17 2.39 2.51 3.27l5.6-14.68 3.21.91-5.54 13.59 3.23 2.61 5.56-14.68 3.2.9v-4h-1.62v-4q0-5.65-5.65-5.66c-2.82-.11-3.53 2.44-4.07 4.74z"/><path class="cls-18" d="M365.86 366.67l3.23 1.62v-1.62h-3.23z"/><path class="cls-63" d="M245.52 361l-4-9.7a12.39 12.39 0 00-5.66 10.5v2.43c0 4.78 5.88 10.1 8.89 12.11-.68-2.89-1.62-3.79-1.62-7.27v-.81c-.03-1.83 1.71-5.82 2.39-7.26z"/><path class="cls-12" d="M441.78 371.52h8.89c-1-1.38-3.41-3.24-5.66-3.24s-2.78 1.37-3.23 3.24z"/><path class="cls-4" d="M362.63 373.13h4c-.87-3.24-.22-2.34-4-2.42zM523.35 373.94h.81l-2.47-8.22-4.8 1.76c1.27 5.44 2.49 3.24 4.85 6.46z"/><path class="cls-57" d="M621.89 362.63c.21 2.53.8 2.87.8 5.65v2.43c0 2.18-.38 2.22-.8 4 3.23-1.71 8.07-5.84 8.07-10.5v-5.66c0-4.34-5-8.87-8.07-10.5l.26 7.27 2.27 3.17z"/><path class="cls-5" d="M389.76 374.96l.33-3.45-2.56.1 2.23 3.35z"/><path class="cls-11" d="M495.09 377.17a1.91 1.91 0 01-1.62-1.62c0-1.86 3.43-2.37 5.65-2.42-.59.88-2.91 4-4 4zm-13.74-12.92h4c2.64 0 2.66.41 4 1.61-1.81.42-1.85.81-4 .81h-4v-2.42zm53.44-4.76l-1.79-3.36 2.38-.92c.57 2.37 1.67 3.44 1.67 5 0 1.92-2.7 3.05-4.84 3.23l2.55-3.95zm-11.44 14.45h-1.61c-2.36-3.22-3.58-1-4.85-6.46l4.8-1.76 2.47 8.22 4.45 1.47-5.26-16c3.56-.3 3.54-1.61 5.66-1.61 1.82 0-.38-.31 1.76.94l-3.38 3.9c1.43 2.14 2.87 4 6.46 4 3 0 3.91-1.25 5.49-2.38l1 4h2.43c3.08 0 .29-.24 2.65.71l-6.71-15.29 2.88-1.27-3.67-2.72c-1 .55-.86.81-2.42.81-4.07 0-1.84-4.85-8.08-4.85h-.81c-3.08 0-.29-.25-2.56.93l2.6 3.21 3.06-.78 2.69 3 .09.85-41.41 12.19c-.42-3.77-4.87-4.84-8.89-4.84-2.51 0-4.84 2.55-4.84 5.65v2.42h-3.23c2.14 8 4.28-2.85 5.84 8.7.69 5.08.17 8.65 5.7 9.84l-2.64-16 14.49-2.67.24 1.14-12.33 2.26c.75 2.81 6.21 8.07 9.7 8.07h.8c2.18 0 2.23-.38 3.94-.77l.91 3.19 4.35-.08-3.5-15.12 18.5-5.84v1.61l-.53-.8-7.29 4.81.55.84c-2.52 0-8.88 1.16-8.88 3.23s3.64 4 4 4c2.87 0 2.14-1.78 3.23-4h3.23l-.55.68 7.77 5.76z"/><path class="cls-5" d="M495.09 377.17c1.12 0 3.44-3.16 4-4-2.22.05-5.65.56-5.65 2.42a1.91 1.91 0 001.65 1.58zM384.27 377.94l3.67-.13-2.67-3.87-1 4z"/><path class="cls-19" d="M393.32 376.36c0 3.09.25.3-.81 2.42 0 0 1.51.81 1.62.81 1.13 0 1.62-1.1 1.62-2.42v-4.85h-2.43z"/><path class="cls-12" d="M436.94 379.59h-7.27v.81h5.65l1.57.02 1.33 3.25 1.14 3.19v-11.31h-2.42v4.04z"/><path class="cls-35" d="M395.75 377.17c0 1.32-.49 2.42-1.62 2.42-.11 0-1.6-.79-1.62-.81 1.06-2.12.81.67.81-2.42v-4h2.43v4.85zM385.27 374l2.67 3.86-3.67.13 1-4zm-18.6-.82h-4v-2.42c3.82.08 3.17-.82 4 2.42zm20.86-1.52l2.23 3.35.33-3.44-2.56.09zm-21.67-4.94h3.23v1.61zm0 0l-5.65.81c-.42 1.81-.81 1.85-.81 4 0 4.14 2.69 5.34 6.46 5.65v2.42c-2.93.07-4.84.36-4.84 3.23 0 2 2 3 3.23 4.85h5.65c-.19-2.28 0-3.23-2.42-3.23h-2.43v-1.79l5.61 1.05-1-.21 1.85-8.74h3.23c-.42.78-3.23 4.8-3.23 4.84 0 1.81.64 1.77 1.61 3.23 1.41-.94 4-2.61 4-4.84v-2.43c0-3.69-1.05-4.76-4.85-4.84l.07-2.74 9.66 1.92c-.22 2.53-.81 2.87-.81 5.65v1.62c0 2.28 1.85 3.12 3.24 4.21l6.45-1c1.2 1.63 1.85 2.42 4.85 2.42s3.23-3.26 3.23-6.46h1L398.8 387l3.24 3 1.78-16.13 3.8-.52-3.87-4.2-.93.43 3.43-3-1.62-3.22c-1.9.16-4 .73-4 2.42 0 1.85.27.94.81 3.23l-.23 1.05-42.58-9.93c.1 6.2 3.37 4.1 7.23 6.54z"/><path class="cls-33" d="M430.47 386.05c0 2.46 1.4 2.75 3.23 3.23-.45-.65-1.61-2-1.61-2.42 0-1.81.64-1.77 1.61-3.23-1.37.37-3.23.94-3.23 2.42z"/><path class="cls-6" d="M28.89 250.35l.19 42.82c0 26.3 11.28 37.65 21 54.14 5.49 9.33 22.36 40.06 22.64 52.47 2.25-2.59 6.76-25.36 9.12-31.26 4.48-11.23 8.53-17.47 13.76-27.43 6.57-12.53 20.69-44.36 24-58.41-1.91 1.4-12.73 14.74-16.35 18.37-6.67 6.66-10.5 10.67-15.63 19.1-8.78 14.41-14.86 32-14.86 54.6h-.81c0-22.53-10.18-54.39-17.22-70.82-6.5-15.17-24-45-24-64.06H30zM804.41 374.75h-.81c0-25.11-5.4-40.14-15-56.06-5-8.24-9.35-13.14-15.88-19.66-3.14-3.15-15.73-18-16.76-18.78 2 8.48 20 51.85 24.4 58.8 8.53 13.53 20.81 41.07 22.45 60.73 1.34-1.92 4.61-14.87 6.21-18.82 2.68-6.64 4.72-11.11 7.79-17.25 5.77-11.54 11.89-21 18.46-31.61 17.08-27.52 12-46.56 12-86.58v-8.07h-1.67c0 19.09-16.57 50.79-23.7 65.13-6.9 13.93-17.49 52.04-17.49 72.17z"/><path class="cls-11" d="M430.47 386.05c0-1.48 1.86-2.05 3.23-2.42-1 1.46-1.61 1.42-1.61 3.23 0 .43 1.16 1.77 1.61 2.42-1.83-.48-3.23-.77-3.23-3.23zm6.46-10.5v4h-7.26v.81H436.89l1.33 3.25 1.14 3.19v-11.25zm8.08-7.27c2.25 0 4.65 1.86 5.66 3.24h-8.89c.45-1.87.85-3.24 3.23-3.24zm-6.46.81v2.43h-15.34l-.66.76 4.8 4.1.82-.73-1.81 2.35 1.09 9.66-.69.82 10.88 5.63.89-3.09-2.49-.48.17-.83 7.19 2c0-14.25-4-17 8.88-17v.8c-3.2 0-6.46.12-6.46 3.23v2.43c0 3.45 4.19 4.84 8 4.88l2.53 5 3.08-.95-2.3-8.1c-1-.53-2.67-1.61-4-1.61s-1.3 1.23-1.93 2.66l-2.11-3.47c5.07-2.43 7.11 2.12 7.27-4.84h3.23c-.2-2.41-.58-4-3.23-4h-4.85v-3.23c-3.25-.76-4-2.43-7.27-2.43h-1.61a4.59 4.59 0 00-4.08 4.01z"/><path class="cls-44" d="M453.09 380.4c1.37 0 3 1.08 4 1.61l2.31 8.12-3.08.95-2.53-5c-3.82 0-8-1.43-8-4.88v-2.43c0-3.11 3.26-3.23 6.46-3.23v-.8c-12.85 0-8.88 2.71-8.88 17l-7.19-2-.17.83 2.49.48-.89 3.09-10.88-5.63.69-.82-1.06-9.69 1.81-2.34-.82.73-4.8-4.1.66-.76h15.34v-2.43a4.59 4.59 0 014-4h1.61c3.24 0 4 1.67 7.27 2.43v3.23h4.85c2.65 0 3 1.63 3.23 4h-3.23c-.16 7-2.2 2.41-7.27 4.84l2.11 3.47c.63-1.43.46-2.66 1.93-2.66zm-88.84 7.27c-1.21-1.81-3.23-2.84-3.23-4.85 0-2.87 1.91-3.16 4.84-3.23v-2.42c-3.77-.31-6.46-1.51-6.46-5.65 0-2.19.39-2.23.81-4l5.65-.81c-3.84-2.44-7.13-.34-7.27-6.46l42.58 9.93.23-1.05c-.54-2.29-.81-1.38-.81-3.23 0-1.69 2.14-2.26 4-2.42l1.62 3.22-3.43 3 .93-.43 3.87 4.2-3.8.52-1.78 16.08-3.24-3 1.24-10.69h-1c0 3.2-.12 6.46-3.23 6.46s-3.65-.79-4.85-2.42l-6.45 1c-1.39-1.09-3.24-1.93-3.24-4.21v-1.62c0-2.78.59-3.12.81-5.65l-9.65-1.94-.07 2.74c3.8.08 4.85 1.15 4.85 4.84V378c0 2.23-2.63 3.9-4 4.84-1-1.46-1.61-1.42-1.61-3.23 0 0 2.81-4.06 3.23-4.84h-3.23l-1.85 8.74 1 .21-5.61-1.05v1.79h2.43c2.44 0 2.23.95 2.42 3.23zM336 344.86q5.65 0 5.65 5.66v4h1.62v4l-3.2-.9-5.56 14.68-3.23-2.61 5.54-13.59-3.21-.91-5.61 14.75c-1.34-.88-2.51-1.11-2.51-3.27s.39-2.23.81-4l-9.68 1.7-1-4.08 9.1-1.39-.05-1.34h-7.27c-1.55.24-1.74-2.41-2.42-3.81h5.65l-1-4.82c1.63-1 1.6-1.64 3.41-1.64h1.61c2.16 0 2.39 1.16 3.23 2.42h4c.54-2.3 1.25-4.85 4-4.85zm188.18 29.08h-.81l-1.66 3.21-7.77-5.76.55-.68h-3.23c-1.09 2.26-.36 4-3.23 4-.4 0-4-2.07-4-4s6.36-3.18 8.88-3.23l-.55-.84 7.29-4.81.53.8V361l-18.53 5.79 3.5 15.12-4.35.08-.91-3.19c-1.71.39-1.76.77-3.94.77h-.8c-3.49 0-8.95-5.26-9.7-8.07l12.33-2.26-.24-1.14-14.54 2.69 2.64 16c-5.53-1.19-5-4.76-5.7-9.84-1.56-11.55-3.7-.67-5.84-8.7h3.23v-2.42c0-3.1 2.33-5.65 4.84-5.65 4 0 8.47 1.07 8.89 4.84l41.41-12.19-.09-.85-2.69-3-3.06.78-2.63-3.16c2.27-1.18-.52-.93 2.56-.93h.81c6.24 0 4 4.85 8.08 4.85 1.56 0 1.44-.26 2.42-.81l3.67 2.72-2.88 1.27 6.73 15.3c-2.36-.95.43-.71-2.65-.71h-2.43l-1-4c-1.58 1.13-2.52 2.38-5.49 2.38-3.59 0-5-1.9-6.46-4l3.38-3.9c-2.14-1.25.06-.94-1.76-.94-2.12 0-2.1 1.31-5.66 1.61l5.26 16-4.45-1.47zm-159.93 13.73c7.65 4.85 56.57 12.92 71.88 12.92 26.28 0 42.85-5.61 63-11.32 10.85-3.07 47.29-17.75 55.74-17.75 9.51 0 20.19 4.77 20.19 13.73v1.61c0 4.94-5.61 8.88-10.5 8.88-6.73 0-14-4.63-14.54-11.3 3.63 2.43 6.31 5.65 12.12 5.65h.81c2.65 0 6.46-2.46 6.46-4 0-5.27-8.09-8.07-13.73-8.07s-10.37 2.88-14.54 3.23c1.85 8 13.09 19.38 23.42 19.38h.81a28.21 28.21 0 0028.27-28.27v-2.46c0-17.36-19.19-30.69-38.77-30.69h-4c-10 0-40.67 9.88-50 13-11.66 3.94-38.71 8.78-54.21 8.78h-17c-20.28 0-44.8-4.32-61.71-8.56-16.45-4.14-38.33-13.25-57-13.25-18.53 0-35.53 13.48-35.53 31.5v4.84c0 12.17 12.69 24.23 26.65 24.23h.81c11.54 0 23.49-9.78 24.23-18.57-5.16-.43-9.07-3.23-15.35-3.23h-4c-3.67 0-8.07 3.83-8.07 7.27 0 1.57 3.8 4 6.46 4 5.58 0 8.16-4.35 11.3-6.46-.46 5.6-6.21 12.92-12.11 12.92h-.81c-6.23 0-12.11-4.94-12.11-10.49v-1.62c0-8.11 6.35-12.11 14.53-12.11h1.62c8.65 0 22.12 4.47 29.39 7 5.41 1.87 21.98 8.85 26.29 9.21z"/><path class="cls-4" d="M372.77 418.08l2.78.28-.31-3.47-2.47 3.19z"/><path class="cls-7" d="M409.48 425.63c0-2.72 1.42-5.66 4-5.66h1.62c2.62 0 .61.7 4 1.62-.6-7.19-13.73-4.32-13.73 5.65 0 4.09 4.37 6.46 8.88 6.46h3.23l.76-2.44c-1.76.44-1.81.83-4 .83h-.81a4.58 4.58 0 01-4-4z"/><path class="cls-37" d="M495.09 410.28c.05 2.65 3.22 11.31 4.84 11.31 2.29 0 4-2.79 4-4.85 0-3.35-2.27-7.27-5.65-7.27-.17 0-2.94.71-3.19.81z"/><path class="cls-8" d="M504 416.74c0 2.06-1.75 4.85-4 4.85-1.62 0-4.79-8.66-4.84-11.31.25-.1 3-.81 3.23-.81 3.38 0 5.65 3.92 5.65 7.27zm-7.57 7.86c4.58-1 10.8-3.23 10.8-9.47 0-2.77-2.09-7.27-4.85-7.27h-2.42c-4 0-7 1.81-9.53 3.16z"/><path class="cls-7" d="M375.24 414.89l.31 3.47-2.78-.28 2.47-3.19zm-4.4 4.37c2.51.13 5.52.38 5.52 3.14v3.23l3.2.9v-16.25l-1.73-.44-11.26 11.66 2 1.12z"/><path class="cls-5" d="M459.38 427.2l3.71-.13-2.71-3.86-1 3.99z"/><path class="cls-7" d="M390.09 424a19 19 0 012.42-9.69l-4-1c-.39 4.33-2.47 6.78-2.47 11.47 0 3.38 3.92 5.65 7.27 5.65 5.79 0 8-9.25 8.08-14.53H399c0 4.55-1.72 12.92-5.66 12.92a3.1 3.1 0 01-3.23-3.23z"/><path class="cls-8" d="M460.38 423.21l2.71 3.86-3.71.13 1-4zm-1.44 5.69h5.45l.91 3.2h4.75l-8.47-14.78h-1.32L456 433.63l2 .08zM488.62 427.24c-.32-3.93-1.36-13.6-5.14-14.47l2.21 9.56-12.69-7.27-.43.86 3.4 14.5 2.17.05-2.46-9.68 12.5 7.21z"/><path class="cls-38" d="M529.01 430.47l5.65-.8V418.36l-17.77 12.11h12.12z"/><path fill="#202020" fill-rule="evenodd" d="M441.78 434.51h8.89v-2.42h-4.85v-2.42l-.94-10.49-3.1-.01v15.34z"/><path class="cls-38" d="M340.82 434.51l19.46.68-18.65-11.18-.81 10.5z"/><path class="cls-8" d="M431.28 425.63c0-1.39 3.92-3 4.85-6.46-4.92.41-4 3.73-8.08 6.46v-6.46h-3.23v15.34h3.23v-5.65l4.06 5.64h4c-1.04-1.99-4.83-7.04-4.83-8.87z"/><path class="cls-6" d="M94.49 462.78l-.8-12.12v-17c0-19.64 8.85-37.33 14.07-52.95 4.47-13.38 8.54-41.95 8.54-59.31-1.47 1.69-7.51 19.17-9.13 23.18-3.44 8.52-6.27 14.95-10.89 22.22C86.21 382.71 80 390.3 80 415.94c-1-.77-34.48-51.91-39.71-58.83-5.57-7.31-17.55-20.88-21.19-28.11-3-5.93-4.66-11.39-6.66-18.37-1.26-4.36-3.08-18.66-4.36-20.68 0 55.43 4.28 68.62 24.77 104.45 9 15.67 19.44 21.84 31.17 33.45s19.92 22.78 30.47 34.93z"/><path class="cls-40" d="M534.66 418.36v11.31l-5.65.8h5.65v39.46l-1.58.93c8.45-.71 25-4.39 24.23-12.93l-.81.08-1.61-24.31v-17h2.42l-17.11-4.21z"/><path class="cls-34" d="M445.12 450.67l-5.14 2.25 20.35 5.78 17.85-12.45-33.06 4.42z"/><path class="cls-6" d="M797.14 413.51c0-21.87-8.06-33.51-16.47-47.33-4.75-7.8-7-11.56-10.74-20.76-1.71-4.25-7.45-21.24-9.13-23.17 0 15.16 3.4 46.54 7.59 57 4.69 11.74 14.22 35.8 14.22 50.4l.18 20.2-1 12.1c9.59-11 17.49-21.92 28.07-32.51 11-11 20.65-17 30.09-30.47 13.35-19.05 31.35-57.95 29.17-92.09l-.91-17h-.81c0 12.22-5.95 29.68-10.22 38.24-3.83 7.67-15 19.89-20.81 27.66-5.37 7.33-37.5 56.47-39.23 57.73z"/><path class="cls-68" d="M533 470.86l1.58-.93v-27.34c-17 0-22.37 1.08-35.38 5-5.84 1.75-23.89 10.4-26.81 14.38 6.8.15 21.06 5 28.33 6.4 11.44 2.25 18.54 2.49 32.28 2.49z"/><path class="cls-40" d="M321.44 414.32l-.81 24.23.81 16.15c-1.17 1.75-2.42 2.69-2.42 5.66 0 8.63 13.21 12.11 21.81 12.11v-24.14l6.46-.9h-6.46v-12.92l.8-10.5-14.57-11.46z"/><path d="M340.83 472.47c12.65 6.07 61.65-11.82 65.41-16.91l-58.95-8.13-6.46.9z" fill="#edb127" fill-rule="evenodd"/><path class="cls-45" d="M372.94 490.86l7.04 6.25 7.45-7.09-.83-.25-7.2-5.37-6.46 6.46z"/><path class="cls-28" d="M478.18 446.25l-17.85 12.45-20.33-5.78 5.14-2.25 33.06-4.42zM662.27 264.1l3.2.91v2.32c0 3.17-1.73 1.76-4 3.23-.3 13.52-8.9 22.28-14.54 30.69 9.3 6.23 21.81 32.86 21.81 50.07 0 4.83-2.86 11.68-3.23 16.16h-8.08c-20.66 0-47.7 42.8-84 42.8h-7.27c-11.81 0-21.33-4.84-26.66-4.84-.11 0-17.31 13.21-19.24 14.67-4.42 3.37-15.75 9.34-21.46 11.66-13.82 5.61-36.57 11.63-55.4 11.63h-18.58c-21 0-40.6-5-55.18-11.86-8.65-4.07-14.6-6.65-22.19-11.73-2.4-1.6-18.4-14.37-18.74-14.37-6.34 0-16.41 4.84-27.46 4.84h-1.61c-45.49 0-66.93-42.8-88.84-42.8h-8.08c-.42-5-3.23-9.67-3.23-17v-4c0-22 14-32.73 21-46-5.13-7.66-12.73-14.62-13.73-26.65l-.81-4c0-14.8 2.34-22.9 4.52-35.86 2.65-15.8.66-20.94.33-36 24.32-2 45.72-33.11 70.26-33.11h15.34l13.7 1.87c7.12-30.67 24.74-55.91 49.83-68.38 12.84-6.37 25.84-13.32 38.78-20.17 6-3.16 14-7.12 19-10.91 5.31-4 11.18-9.82 16-13.06 6 4 10.3 9 16.63 13.26 6.16 4.19 12.64 7.29 18.92 11 12.27 7.16 26.39 12.85 38.78 20.18 25.64 15.17 42.34 35.56 50.05 68.67l15.27-2.86 13 .44c24.47 0 49.92 33.11 71.07 33.11l-1.93 17.73.32 4.89 6.46 43.61zM580.7 129.22c-13.92 0-19.52-3.06-29.89 2.43l12.13 28.42 16.95-1h.81c9.43 0 14.51 3.08 21 3.23v-6.47c0-11.06-13.44-15-16.15-26.65zm-294.79 0h-3.23c-2.57 11-15.35 14.87-15.35 25.85v7.27c5.14-.12 9.35-3.23 17-3.23l9.71-.19 12.08 1.13-.75-.46 12.07-28.75c-14-3.26-15.62-1.62-31.49-1.62zM340 105l-18.58 20.19c-1.86 1.09-11-4-17-3.51l-15.3 1.9c-3 .41-7-3.58-8.89-4.85-4.26 18.3-19.38 24.06-19.38 35.54v11.31c-18.06 4.2-30.39 27.46-57.34 27.46.12 5.7 2.42 9.62 2.42 16.15l.44 10.56-6.09 45.17v4.84c0 14.68 7 22.69 12.92 31.5-10.31 15.4-19.39 24.62-19.39 50.88 0 7.07 2.59 17.9 4.85 22.62 2.53-.21 2.87-.81 5.65-.81h4c13.46 0 28.53 16.28 37.15 22.61 7.17 5.27 29.36 20.19 40.39 20.19l16.21.44 19.32-2.86 5.62-1.77L341.63 424l18.65 11.18-19.45-.68v12.92h6.46l58.95 8.13c-3.76 5.09-52.76 23-65.41 16.91-8.6 0-21.81-3.48-21.81-12.11 0-3 1.25-3.91 2.42-5.66l-.81-16.15c-10.87 2.53-21 10.6-21 24.23 0 11 13.39 19.66 22.61 21.81L348.9 487c14.86 0 31.3-5.31 42-9.69 4-1.65 35.46-16.16 35.54-16.16 7.78 0 12.91 4.67 21 4.85-1.8 6.77-34.28 21-47.65 21 1.35 3.71 9.63 6.46 14.54 6.46h8.08c5.37 0 11.79-6.91 16.15-8.08.5 6 7 9.69 13.73 9.69v-5.65c0-7.15 4.78-15 8.88-17.77 16.51 3.85 33.92 13.73 54.92 13.73 7.85 0 14.33-.2 21-.78 8.18-.71 11.46-3.41 17.74-4.87 6.91-1.61 17.77-12.2 17.77-21v-5.65c0-9.65-9.87-17.55-17.77-19.39l1.63 24.31.81-.08c.79 8.54-15.78 12.22-24.23 12.93-13.78 0-20.88-.24-32.24-2.49-7.27-1.44-21.53-6.25-28.33-6.4 2.92-4 21-12.63 26.81-14.38 13-3.92 18.4-5 35.38-5v-12.11h-17.77l17.77-12.11 5.5-5.83 17.11 4.21 7.27.81h9.69c37.32 0 64.79-43.61 87.23-43.61h1.62a13.16 13.16 0 016.46 1.61c2.81-5.87 4.84-14.7 4.84-23.42v-1.61c0-12.51-1.58-18.73-5.39-27.72a72.59 72.59 0 00-6.07-10.9c-.93-1.42-7.11-9.33-7.11-9.84 0-1.56 12.92-18.92 12.92-30.69l.51-6.55-7-45.95-.08-7.28 2.5-18.56c-13.88-.31-22.39-5.77-31.17-11.63s-17.67-11-26.38-16.66l1-11.29c.71-7.25-7.85-12.75-10.67-16-4.91-5.65-6.76-10.32-8.72-18.74-3.52.94-5.1 5.6-9.72 5L566.16 122l-2.45-.18-8.86 1-6.49 3.17-12.89-14.48c-3.14-2.1-7.45-6.32-11.09-9.1-4.36-3.34-8-5.25-12.81-8.18-9.19-5.59-17.39-9.84-27.26-14.75-8.53-4.24-18.71-9.67-26.55-14.64A109.41 109.41 0 01445.6 56c-3.66-3-8-7.84-11.09-9.91-6.94 4.64-12.33 12-21 17-8.19 4.71-15.31 9.59-24.51 14.17-8.76 4.37-16.53 8.31-25.3 12.66C354.41 94.53 347.6 101 340 105z"/><path class="cls-6" d="M0 364.25c1 1.5 5.22 22.63 6.76 27.16 3.39 10 6 15.85 9.87 24.86 6.27 14.79 18.54 28.91 29.19 39.45 8.93 8.84 27.71 23.87 39 29.67 9.52 4.9 36.37 22.17 45.23 24.23-1.7-7.28-7.27-16.88-7.27-26.65l-.08-14.54 3.3-43.61.53-12.18-6.18-47.59c-1.92 3-7.81 31.32-10.26 38.21-4.3 12.07-9.93 23.47-9.93 39.33v.81c0 9.44 2.74 17.87 4.69 25.19 1.41 5.3 7.17 19.38 7.42 22.46-4.31-2.89-21.84-25.48-28.06-31.7-5.44-5.44-9.48-9.47-15.35-14.54-5.53-4.76-12-8.41-17.37-13.32-10.81-9.83-20.14-19.76-27.78-32.79C21.5 395 .85 362.45 0 361.82zM763.22 491.85c1.55-6.62 6.23-15.32 8.26-23.24 2.18-8.52 4.66-16.61 4.66-27.64v-1.61c0-14.81-6.06-26-10-37.66-2.39-7.09-8-33.94-10.17-37.45l-5.68 49.26-.16 14.56 3.39 41.17v12.92c0 11.5-5.43 18.78-7.27 26.65 6.47-1.5 37.94-19.95 45.21-24.25 13-7.69 29-19.54 39.4-30.05 12.52-12.61 21.06-23.11 29.54-39.92 4.71-9.32 15.88-41.73 15.88-54.38-3.2 3.69-8.09 13.79-11.3 18.58-4.13 6.14-7.75 12.43-12 18.73-9.51 14.28-15.72 21.8-28.21 33.17-5.39 4.9-11.85 8.55-17.37 13.32-6 5.18-10.19 9.38-15.76 14.93-6.74 6.77-23.64 29.43-28.42 32.91z"/><path fill="#8d6c29" fill-rule="evenodd" d="M449.05 505.58l2.54.79-.92-2.4v1.61h-1.62z"/><path class="cls-45" d="M485.39 509.62h3.23c8.21 0 15.35 12 15.35 21 0 7-4.66 14.54-11.31 14.54h-2.42c-16.66 0-22.66-35.54-4.85-35.54zm-19.38 17v4c0 7.28 9.67 18.58 17 18.58h8.88c9.15 0 20.2-10 20.2-19.39v-5.65c0-9.73-10.44-19.38-20.2-19.38h-.8c-13.43 0-25.09 8.61-25.09 21.8z"/><path class="cls-38" d="M485.39 509.62c-17.81 0-11.81 35.54 4.85 35.54h2.42c6.65 0 11.31-7.54 11.31-14.54 0-9-7.14-21-15.35-21z"/><path d="M377.17 548.39l7.27 3.23v-41.19c0-2.31-5.38-4.65-7.27-5.65z" fill="#010101" fill-rule="evenodd"/><path class="cls-45" d="M450.67 504l.92 2.4-2.54-.79c-7.79 0-18.58 2.56-18.58 8.89v2.42c0 10.85 24.23 15.85 24.23 23.42v2.43c0 2.61-2.93 4-5.65 4h-3.23c-4.7 0-8.77-4.12-9.89-8.43l-7.88 4.4a17.43 17.43 0 0015.35 8.07c9.38 0 18.57-3.62 18.57-12.92 0-12.21-25.84-15.2-25.84-25a3.1 3.1 0 013.23-3.23h.81c10.68 0 13 8.64 17.76 12.12V504l56.87-.25-4.37-6.21h-147c1.15 1.72 4.07 6.46 6.46 6.46h46.84v2.42c-6.94-3.33-20.19 2.09-20.19 7.27v5.65c0 6.9 24.23 14.13 24.23 21.81q0 5.65-5.65 5.65h-4c-6.41 0-7.75-6.06-10.44-8l-6.52 3.13c.49 5.86 8.76 8.88 15.35 8.88 7.66 0 17.76-3.52 17.76-10.5v-3.23c0-11.18-25-14.14-25-24.23v-.8c0-1.87.56-2.43 2.42-2.43h2.42c7.78 0 12.42 8.57 16 11.3l.94-12.11V504z"/><path class="cls-6" d="M20.8 448.44c-4.11-4-12.45-16.8-15.15-18.77 1.12 8.68 23.08 44.67 28.27 52.49 11.58 17.45 22.4 29 39 41.78 13.23 10.17 37.25 19.52 55.2 25.56 10.11 3.41 22.45 5.19 31.81 8.57 4.94 1.78 26.51 10.23 29.88 10.51-2.78-3.79-7.82-6.89-11.49-12.75a71.27 71.27 0 01-7.9-16.32 327.11 327.11 0 01-9.5-39c-2.43-14.57-6.19-25.16-11-37.44-2.62-6.66-11.16-29.8-15-32.63L132 466.79l.44 14.56c0 11.7 8 27.78 12.38 36.09 2.74 5.21 19 28.11 19.12 28.53-13.61-9.12-26.87-18.38-40.87-27.79-13.71-9.21-28.87-16.88-43.66-25-13.72-7.52-29.93-17.63-41.26-27.38-7.38-6.34-10.85-10.98-17.35-17.36zM686.5 567.77c4.28-.35 23.89-8.62 30.53-10.65 9.9-3 21.35-5.75 31.53-8.86 20.71-6.32 38.71-14.61 55.2-25.56 15.41-10.22 29-26.81 39.26-42.32 6.43-9.71 25.86-41.31 28.43-52.33-2.89 2.11-11.51 15.11-15.56 19.18-6.19 6.21-9.63 11.28-16.9 17-11.75 9.27-27.37 20.75-41 27.62a463.89 463.89 0 00-43.77 24.88c-7.32 4.79-13.88 9-20.84 13.89-5.39 3.78-14.83 10.88-20.2 13.72.17-.63 16.85-24.81 19.92-31 4.56-9.14 12.58-25.41 11.58-39.3L742 429.63c-10.56 11.56-22.57 51.59-26.44 71.05a342.86 342.86 0 01-9.74 38.72 71.19 71.19 0 01-8.12 16.11c-3.9 5.91-8.45 8.49-11.2 12.26z"/><path class="cls-38" d="M377.17 504.78c1.89 1 7.27 3.34 7.27 5.65v41.19l-7.27-3.23v-43.61zm88.83 21.8c0-13.19 11.65-21.8 25-21.8h.8c9.76 0 20.2 9.65 20.2 19.38v5.65c0 9.36-11 19.39-20.2 19.39H483c-7.29 0-17-11.3-17-18.58v-4zm-17-21c-7.79 0-18.58 2.56-18.58 8.89v2.42c0 10.85 24.23 15.85 24.23 23.42v2.43c0 2.61-2.93 4-5.65 4h-3.23c-4.7 0-8.77-4.12-9.89-8.43l-7.88 4.4a17.43 17.43 0 0015.35 8.07c9.38 0 18.57-3.62 18.57-12.92 0-12.21-25.84-15.2-25.84-25a3.1 3.1 0 013.23-3.23h.81c10.68 0 13 8.64 17.76 12.12V504l56.87-.25-4.37-6.21h-147c1.15 1.72 4.07 6.46 6.46 6.46h46.84v2.42c-6.94-3.33-20.19 2.09-20.19 7.27v5.65c0 6.9 24.23 14.13 24.23 21.81q0 5.65-5.65 5.65h-4c-6.41 0-7.75-6.06-10.44-8l-6.52 3.13c.49 5.86 8.76 8.88 15.35 8.88 7.66 0 17.76-3.52 17.76-10.5v-3.23c0-11.18-25-14.14-25-24.23v-.8c0-1.87.56-2.43 2.42-2.43h2.42c7.78 0 12.42 8.57 16 11.3l.94-12.11V504h26.66v1.61zm-69.6-21.18l7.2 5.37.83.25-7.43 7.09-7-6.25 6.46-6.46zm-30.5 2.6l-6.46.81c2.27 27.32 14.37 45.33 29.28 60.37 12.08 12.2 41.21 25.24 65.21 25.24h11.31c45.15 0 86.42-43 86.42-87.18l-18.58-.86c-21 0-38.41-9.88-54.92-13.73-4.1 2.75-8.88 10.62-8.88 17.77v5.65c-6.71 0-13.23-3.73-13.73-9.69-4.36 1.17-10.78 8.08-16.15 8.08h-8.08c-4.91 0-13.19-2.75-14.54-6.46 13.37 0 45.85-14.23 47.65-21-8.08-.18-13.21-4.85-21-4.85-.08 0-31.52 14.51-35.54 16.16-10.69 4.39-27.13 9.69-41.99 9.69z"/><path class="cls-3" d="M516.08 485.39l18.58.86c0 44.22-41.27 87.18-86.42 87.18h-11.31c-24 0-53.13-13-65.21-25.24-14.91-15-27-33.05-29.28-60.37l6.46-.81-26.65-2.42c0 32 18.6 61 34.93 77.33 15.72 15.75 50.26 31.7 81.37 31.7H445c61.7 0 109.84-52 109.84-113.88-6.28 1.46-9.56 4.16-17.74 4.87-6.69.58-13.17.78-21.02.78z"/><path class="cls-6" d="M640.46 583.12c1.73-1.51 22-11 25.86-12.91 9.29-4.7 13.83-10 20.37-17.59 8-9.24 7.25-14.62 11.21-26.75 1.77-5.47 8.38-24.29 8.79-29.17-5.14 3.44-18.71 19.93-24.43 25.64-8.56 8.55-14.75 18.34-22.61 27.47-8.5 9.86-13.41 17.88-24.17 25.91-5 3.7-9.16 7-15 10.09-2.56 1.34-15.54 7.43-16.41 8.61l72.68-1.31 2.43.51c34.71 0 75.65-5.13 98.81-16.69 10.81-5.39 24.83-16.9 33-25.1 4.21-4.22 24.47-27.34 25.64-31.71-6.73 4.51-11.42 9.07-19.4 13.72-6.78 3.95-14.83 6.39-22.34 10-14.8 7-30.17 13.23-47.28 17.34-17.86 4.29-34.22 7.54-53.08 11.52-10.53 2.2-45.03 10.42-54.07 10.42zM194 523.15c-5.91-5.86-18.9-21.94-24.42-25.64.8 6.29 6.72 22.84 9 29.79 3.48 10.73 4 18.76 11.41 26.55 8 8.42 9.23 11.47 20.54 17.42 6.43 3.38 20.53 9.34 25.3 12.66-10 0-42.19-7.8-54.45-10.16-16.94-3.26-37.92-6.88-53.09-11.52-18.49-5.67-30.67-9.89-47-17.64-7.7-3.66-15-6.22-22.36-9.94-7.73-3.92-12.1-8.6-18.57-12.93 1.32 4.93 20 25.86 24.41 30.51C73 560.9 84.7 569.48 95.14 576c17.09 10.7 61.63 18.41 89.81 18.41h4.85l82.38.39c-.64-.13-14.38-7.17-16.43-8.19-5.46-2.69-10.29-6.63-14.94-10.1-10.05-7.49-16.2-16.39-24.14-25.93-7.67-9.27-14.11-18.99-22.67-27.43z"/><path class="cls-68" d="M340 105c7.58-4 14.39-10.46 23.69-15.07 8.77-4.35 16.54-8.29 25.3-12.66 9.19-4.58 16.31-9.46 24.53-14.24 8.64-5 14-12.34 21-17 3.1 2.07 7.43 6.87 11.09 9.91a109.41 109.41 0 0012.16 8.83c7.84 5 18 10.4 26.55 14.64 9.87 4.91 18.07 9.16 27.26 14.75 4.81 2.93 8.45 4.84 12.81 8.18 3.64 2.78 8 7 11.09 9.1V51.69h19.38v71.07l8.86-1 2.45.18 12.89 1.81c4.62.56 6.2-4.1 9.72-5 2 8.42 3.81 13.09 8.72 18.74 2.82 3.24 11.38 8.74 10.67 16l-1 11.29c8.71 5.71 17.55 10.77 26.38 16.66s17.29 11.32 31.17 11.63l-2.5 18.56.08 7.28 7 45.95-.51 6.55c0 11.77-12.92 29.13-12.92 30.69 0 .51 6.18 8.42 7.11 9.84A72.59 72.59 0 01669 322.8c3.81 9 5.39 15.21 5.39 27.72v1.61c0 8.72-2 17.55-4.84 23.42a13.16 13.16 0 00-6.46-1.61h-1.62c-22.44 0-49.91 43.61-87.23 43.61h-9.69l-7.27-.81h-2.42v17c7.9 1.84 17.77 9.74 17.77 19.39v5.65c0 8.8-10.86 19.39-17.77 21 0 61.89-48.14 113.88-109.84 113.88h-6.46c-31.11 0-65.65-16-81.37-31.7-16.33-16.37-34.93-45.33-34.93-77.33-9.22-2.15-22.61-10.8-22.61-21.81 0-13.63 10.12-21.7 21-24.23l.81-24.23-19.32 2.86-16.21-.44c-11 0-33.22-14.92-40.39-20.19-8.62-6.33-23.69-22.61-37.15-22.61h-4c-2.78 0-3.12.6-5.65.81-2.26-4.72-4.85-15.55-4.85-22.62 0-26.26 9.08-35.48 19.39-50.88-5.9-8.81-12.92-16.82-12.92-31.5v-4.84l6.09-45.17-.45-10.6c0-6.53-2.3-10.45-2.42-16.15 26.95 0 39.28-23.26 57.34-27.46v-11.31c0-11.48 15.12-17.24 19.38-35.54 1.9 1.27 5.89 5.26 8.89 4.85l15.3-1.9c6-.53 15.14 4.6 17 3.51l-.82-71.07H340V105zM143.76 301.25v19.38c0 82.21 43.65 156.32 85 197.68 24 24 50.52 42.79 82.71 58.63 26.51 13 75.28 28 114.16 28H445c85.86 0 158.1-43.82 201.31-87 43.81-43.81 85.4-116.46 85.4-203.73v-12.96c0-39.2-14.83-89.07-28-115.78-16.82-34.17-34.39-58.45-59.85-83.91C599.8 57.47 528.19 17 440.17 17h-6.47c-86 0-159.4 41.08-202.51 84.2-42.61 42.57-87.43 115.44-87.43 200.05z"/><path class="cls-6" d="M469.24 714.76c0-12.8-19-34.62-25-43.61C467 637.18 537.9 617 596.85 617h3.23c24.69 0 45.52 14.54 74.3 14.54h8.08c22 0 40-7.48 55.83-13.62 10.34-4 35.83-20 40.28-28.38-27.24 6.34-55.76 14.54-89.65 14.54h-30.69l-43.6-3.33-12.13.1c-30.93 0-71 10.74-95 18.89-11.84 4-30.11 11.83-38.87 18.47-5.35 4-11.43 7.55-16.18 12.09-3.34 3.19-11.59 11.45-14.72 13.54-3.58-2.4-10.52-9.71-14.32-13.13-4.75-4.29-10.38-7.91-15.88-11.58-11.19-7.46-22.94-12.5-36.35-17.77-18.15-7.13-65.31-18.9-89.32-18.9h-20.18l-48.45 3.43-10.51-.2a356.79 356.79 0 01-56.21-4.36c-18.85-3.18-32.24-7.13-48.79-11 13.4 20 62.42 42 97.73 42h9.69c27.1 0 47.15-14.53 74.31-14.53 57.66 0 129.63 20.15 151.83 53.3-6.08 9.08-23.94 30.05-24.23 42.81 6.87-1.6 14.82-8.63 17.78-14.53 2-4 11.68-18.62 12.1-20.2 3.87 1 11.73 15.29 13.74 19.38 6 12.25 8.73 9 16.95 16.15z"/><path class="cls-28" d="M143.76 301.25c0-84.61 44.82-157.48 87.43-200.09C274.3 58 347.66 17 433.7 17h6.47c88 0 159.63 40.51 203.72 84.6 25.46 25.46 43 49.74 59.85 83.91 13.15 26.71 28 76.58 28 115.78v12.92c0 87.27-41.59 159.92-85.4 203.73-43.21 43.2-115.45 87-201.31 87h-19.4c-38.88 0-87.65-14.93-114.16-28-32.19-15.84-58.73-34.66-82.71-58.63-41.35-41.36-85-115.47-85-197.68v-19.38zM126 323.06c0 88.53 47.24 165.56 91.87 210.18 45 45 122.27 90.26 211.81 90.26H445c88.79 0 166.38-44.83 211-89.45 23.82-23.82 48.16-54.91 62.8-87.42 13.59-30.18 29.87-76.23 29.87-119.53v-26.66c0-45.31-15.5-94-30.69-124.37-18.38-36.8-37.23-61.68-64.8-89.46C605.83 38.91 526.8 0 431.28 0 343.7 0 263 45 219.07 89c-26.47 26.54-45.22 52.71-62.92 88.11-13.89 27.8-30.15 79.13-30.15 120.1z"/></g></g></svg>